<svg xmlns="http://www.w3.org/2000/svg" xmlns:xlink="http://www.w3.org/1999/xlink" width="1000" zoomAndPan="magnify" viewBox="0 0 750 749.999995" height="1000" preserveAspectRatio="xMidYMid meet" version="1.0"><defs><g/><clipPath id="a9b78a77e6"><path d="M 126 240.035156 L 217 240.035156 L 217 327 L 126 327 Z M 126 240.035156 " clip-rule="nonzero"/></clipPath><clipPath id="db0d6dbeb0"><path d="M 123 293 L 252 293 L 252 398.285156 L 123 398.285156 Z M 123 293 " clip-rule="nonzero"/></clipPath><clipPath id="0723eaba67"><path d="M 123 309 L 208 309 L 208 398.285156 L 123 398.285156 Z M 123 309 " clip-rule="nonzero"/></clipPath></defs><g clip-path="url(#a9b78a77e6)"><path fill="#0c6d03" d="M 151.300781 326.394531 C 151.300781 326.394531 124.386719 301.480469 127.152344 284.871094 C 129.730469 268.078125 164.019531 240.027344 179.503906 240.949219 C 194.988281 241.691406 216.558594 276.015625 216.558594 276.015625 L 205.125 285.242188 C 205.125 285.242188 185.21875 259.769531 179.6875 256.820312 C 174.15625 253.6875 145.214844 279.335938 144.292969 284.871094 C 143.371094 290.40625 165.300781 317.167969 165.300781 317.167969 Z M 151.300781 326.394531 " fill-opacity="1" fill-rule="evenodd"/></g><path fill="#50df4e" d="M 210.839844 280.628906 L 205.125 285.242188 C 205.125 285.242188 185.21875 259.769531 179.6875 256.820312 C 174.15625 253.6875 145.214844 279.335938 144.292969 284.871094 C 144.292969 284.871094 143.558594 278.042969 149.457031 269.554688 C 155.355469 261.0625 173.972656 247.964844 179.871094 248.703125 C 184.296875 249.070312 202.179688 270.292969 210.84375 280.628906 Z M 210.839844 280.628906 " fill-opacity="1" fill-rule="evenodd"/><g clip-path="url(#db0d6dbeb0)"><path fill="#0dff00" d="M 207.523438 398.546875 C 225.589844 391.535156 272.410156 335.25 240.703125 303.878906 C 209 272.507812 186.875 323.804688 186.875 323.804688 C 186.875 323.804688 172.683594 298.539062 138.765625 316.242188 C 105.03125 333.960938 126.417969 396.519531 207.523438 398.542969 Z M 207.523438 398.546875 " fill-opacity="1" fill-rule="evenodd"/></g><g clip-path="url(#0723eaba67)"><path fill="#2ccd1d" d="M 167.890625 310.523438 C 160.527344 309.046875 150.933594 309.785156 138.765625 316.242188 C 105.03125 333.960938 126.417969 396.519531 207.523438 398.542969 C 207.523438 398.542969 147.796875 378.617188 144.109375 342.8125 C 141.898438 322.144531 155.722656 313.84375 167.890625 310.523438 Z M 167.890625 310.523438 " fill-opacity="1" fill-rule="evenodd"/></g><path fill="#50df4e" d="M 188.351562 354.8125 L 187.800781 369.753906 L 202.546875 366.617188 L 196.09375 353.148438 C 196.09375 353.148438 203.835938 346.316406 197.570312 340.230469 C 191.117188 334.324219 172.3125 343.367188 188.351562 354.808594 Z M 188.351562 354.8125 " fill-opacity="1" fill-rule="evenodd"/><path fill="#0c6d03" d="M 188.351562 354.8125 L 187.800781 369.753906 L 197.761719 367.722656 L 191.679688 355.175781 C 191.679688 355.175781 199.421875 348.347656 193.152344 342.257812 C 192.585938 341.816406 191.976562 341.449219 191.324219 341.15625 C 190.667969 340.859375 189.988281 340.648438 189.28125 340.519531 C 188.574219 340.390625 187.863281 340.347656 187.144531 340.394531 C 186.429688 340.4375 185.726562 340.566406 185.042969 340.78125 C 181.171875 343.550781 180.0625 348.902344 188.359375 354.808594 Z M 188.351562 354.8125 " fill-opacity="1" fill-rule="evenodd"/><path fill="#0dff00" d="M 264.441406 354.71875 L 595.738281 354.71875 C 596.527344 354.71875 597.164062 355.359375 597.164062 356.148438 L 597.164062 381.851562 C 597.164062 382.640625 596.527344 383.28125 595.738281 383.28125 L 264.441406 383.28125 C 264.0625 383.28125 263.699219 383.128906 263.433594 382.863281 C 263.164062 382.59375 263.015625 382.230469 263.015625 381.851562 L 263.015625 356.148438 C 263.015625 355.769531 263.164062 355.40625 263.433594 355.136719 C 263.699219 354.871094 264.0625 354.71875 264.441406 354.71875 Z M 264.441406 354.71875 " fill-opacity="1" fill-rule="nonzero"/><g fill="#000000" fill-opacity="1"><g transform="translate(274.181708, 374.250002)"><g><path d="M 6.3125 0.1875 C 5.488281 0.1875 4.738281 0.0507812 4.0625 -0.21875 C 3.394531 -0.488281 2.816406 -0.863281 2.328125 -1.34375 C 1.847656 -1.820312 1.472656 -2.390625 1.203125 -3.046875 C 0.929688 -3.710938 0.796875 -4.4375 0.796875 -5.21875 L 0.796875 -5.25 C 0.796875 -6 0.929688 -6.703125 1.203125 -7.359375 C 1.484375 -8.015625 1.867188 -8.585938 2.359375 -9.078125 C 2.847656 -9.578125 3.425781 -9.96875 4.09375 -10.25 C 4.757812 -10.539062 5.492188 -10.6875 6.296875 -10.6875 C 6.765625 -10.6875 7.191406 -10.648438 7.578125 -10.578125 C 7.960938 -10.515625 8.320312 -10.421875 8.65625 -10.296875 C 8.988281 -10.179688 9.296875 -10.03125 9.578125 -9.84375 C 9.867188 -9.664062 10.148438 -9.460938 10.421875 -9.234375 L 8.96875 -7.484375 C 8.769531 -7.648438 8.566406 -7.796875 8.359375 -7.921875 C 8.160156 -8.054688 7.953125 -8.171875 7.734375 -8.265625 C 7.523438 -8.359375 7.296875 -8.425781 7.046875 -8.46875 C 6.796875 -8.519531 6.519531 -8.546875 6.21875 -8.546875 C 5.800781 -8.546875 5.410156 -8.457031 5.046875 -8.28125 C 4.679688 -8.113281 4.359375 -7.878906 4.078125 -7.578125 C 3.804688 -7.285156 3.59375 -6.941406 3.4375 -6.546875 C 3.28125 -6.148438 3.203125 -5.726562 3.203125 -5.28125 L 3.203125 -5.25 C 3.203125 -4.769531 3.28125 -4.328125 3.4375 -3.921875 C 3.59375 -3.515625 3.8125 -3.160156 4.09375 -2.859375 C 4.382812 -2.566406 4.722656 -2.335938 5.109375 -2.171875 C 5.492188 -2.003906 5.921875 -1.921875 6.390625 -1.921875 C 7.253906 -1.921875 7.976562 -2.128906 8.5625 -2.546875 L 8.5625 -4.046875 L 6.234375 -4.046875 L 6.234375 -6.046875 L 10.796875 -6.046875 L 10.796875 -1.484375 C 10.253906 -1.023438 9.609375 -0.628906 8.859375 -0.296875 C 8.117188 0.0234375 7.269531 0.1875 6.3125 0.1875 Z M 6.3125 0.1875 "/></g></g></g><g fill="#000000" fill-opacity="1"><g transform="translate(287.156703, 374.250002)"><g><path d="M 1.265625 -10.5 L 9.1875 -10.5 L 9.1875 -8.4375 L 3.5625 -8.4375 L 3.5625 -6.3125 L 8.5 -6.3125 L 8.5 -4.265625 L 3.5625 -4.265625 L 3.5625 -2.0625 L 9.25 -2.0625 L 9.25 0 L 1.265625 0 Z M 1.265625 -10.5 "/></g></g></g><g fill="#000000" fill-opacity="1"><g transform="translate(298.421698, 374.250002)"><g><path d="M 1.265625 -10.5 L 3.390625 -10.5 L 8.3125 -4.03125 L 8.3125 -10.5 L 10.59375 -10.5 L 10.59375 0 L 8.625 0 L 3.546875 -6.671875 L 3.546875 0 L 1.265625 0 Z M 1.265625 -10.5 "/></g></g></g><g fill="#000000" fill-opacity="1"><g transform="translate(311.486688, 374.250002)"><g><path d="M 1.265625 -10.5 L 9.1875 -10.5 L 9.1875 -8.4375 L 3.5625 -8.4375 L 3.5625 -6.3125 L 8.5 -6.3125 L 8.5 -4.265625 L 3.5625 -4.265625 L 3.5625 -2.0625 L 9.25 -2.0625 L 9.25 0 L 1.265625 0 Z M 1.265625 -10.5 "/></g></g></g><g fill="#000000" fill-opacity="1"><g transform="translate(322.751685, 374.250002)"><g><path d="M 1.265625 -10.5 L 6.0625 -10.5 C 7.394531 -10.5 8.414062 -10.144531 9.125 -9.4375 C 9.71875 -8.832031 10.015625 -8.03125 10.015625 -7.03125 L 10.015625 -7 C 10.015625 -6.15625 9.804688 -5.460938 9.390625 -4.921875 C 8.984375 -4.390625 8.441406 -4 7.765625 -3.75 L 10.328125 0 L 7.640625 0 L 5.390625 -3.359375 L 3.5625 -3.359375 L 3.5625 0 L 1.265625 0 Z M 5.90625 -5.40625 C 6.476562 -5.40625 6.914062 -5.535156 7.21875 -5.796875 C 7.53125 -6.066406 7.6875 -6.429688 7.6875 -6.890625 L 7.6875 -6.921875 C 7.6875 -7.421875 7.523438 -7.796875 7.203125 -8.046875 C 6.878906 -8.296875 6.429688 -8.421875 5.859375 -8.421875 L 3.5625 -8.421875 L 3.5625 -5.40625 Z M 5.90625 -5.40625 "/></g></g></g><g fill="#000000" fill-opacity="1"><g transform="translate(334.81168, 374.250002)"><g><path d="M 4.859375 -10.578125 L 6.984375 -10.578125 L 11.484375 0 L 9.078125 0 L 8.109375 -2.359375 L 3.671875 -2.359375 L 2.71875 0 L 0.359375 0 Z M 7.296875 -4.390625 L 5.890625 -7.796875 L 4.5 -4.390625 Z M 7.296875 -4.390625 "/></g></g></g><g fill="#000000" fill-opacity="1"><g transform="translate(347.876673, 374.250002)"><g><path d="M 3.703125 -8.375 L 0.515625 -8.375 L 0.515625 -10.5 L 9.203125 -10.5 L 9.203125 -8.375 L 6.015625 -8.375 L 6.015625 0 L 3.703125 0 Z M 3.703125 -8.375 "/></g></g></g><g fill="#000000" fill-opacity="1"><g transform="translate(358.811668, 374.250002)"><g><path d="M 1.265625 -10.5 L 9.1875 -10.5 L 9.1875 -8.4375 L 3.5625 -8.4375 L 3.5625 -6.3125 L 8.5 -6.3125 L 8.5 -4.265625 L 3.5625 -4.265625 L 3.5625 -2.0625 L 9.25 -2.0625 L 9.25 0 L 1.265625 0 Z M 1.265625 -10.5 "/></g></g></g><g fill="#000000" fill-opacity="1"><g transform="translate(370.076665, 374.250002)"><g/></g></g><g fill="#000000" fill-opacity="1"><g transform="translate(375.791666, 374.250002)"><g><path d="M 4.21875 -4.140625 L 0.1875 -10.5 L 2.875 -10.5 L 5.390625 -6.28125 L 7.9375 -10.5 L 10.5625 -10.5 L 6.53125 -4.1875 L 6.53125 0 L 4.21875 0 Z M 4.21875 -4.140625 "/></g></g></g><g fill="#000000" fill-opacity="1"><g transform="translate(387.746656, 374.250002)"><g><path d="M 6.359375 0.1875 C 5.546875 0.1875 4.800781 0.046875 4.125 -0.234375 C 3.445312 -0.523438 2.859375 -0.910156 2.359375 -1.390625 C 1.867188 -1.878906 1.484375 -2.453125 1.203125 -3.109375 C 0.929688 -3.765625 0.796875 -4.46875 0.796875 -5.21875 L 0.796875 -5.25 C 0.796875 -6 0.9375 -6.703125 1.21875 -7.359375 C 1.5 -8.015625 1.882812 -8.585938 2.375 -9.078125 C 2.875 -9.578125 3.460938 -9.96875 4.140625 -10.25 C 4.828125 -10.539062 5.578125 -10.6875 6.390625 -10.6875 C 7.203125 -10.6875 7.945312 -10.539062 8.625 -10.25 C 9.300781 -9.96875 9.882812 -9.582031 10.375 -9.09375 C 10.875 -8.613281 11.257812 -8.046875 11.53125 -7.390625 C 11.8125 -6.734375 11.953125 -6.03125 11.953125 -5.28125 L 11.953125 -5.25 C 11.953125 -4.5 11.8125 -3.796875 11.53125 -3.140625 C 11.25 -2.484375 10.859375 -1.90625 10.359375 -1.40625 C 9.867188 -0.914062 9.28125 -0.523438 8.59375 -0.234375 C 7.914062 0.046875 7.171875 0.1875 6.359375 0.1875 Z M 6.390625 -1.953125 C 6.847656 -1.953125 7.269531 -2.035156 7.65625 -2.203125 C 8.050781 -2.367188 8.382812 -2.601562 8.65625 -2.90625 C 8.9375 -3.207031 9.15625 -3.554688 9.3125 -3.953125 C 9.46875 -4.347656 9.546875 -4.769531 9.546875 -5.21875 L 9.546875 -5.25 C 9.546875 -5.695312 9.46875 -6.117188 9.3125 -6.515625 C 9.15625 -6.921875 8.929688 -7.273438 8.640625 -7.578125 C 8.359375 -7.878906 8.019531 -8.113281 7.625 -8.28125 C 7.238281 -8.457031 6.816406 -8.546875 6.359375 -8.546875 C 5.890625 -8.546875 5.460938 -8.460938 5.078125 -8.296875 C 4.691406 -8.128906 4.359375 -7.894531 4.078125 -7.59375 C 3.804688 -7.289062 3.59375 -6.941406 3.4375 -6.546875 C 3.28125 -6.148438 3.203125 -5.726562 3.203125 -5.28125 L 3.203125 -5.25 C 3.203125 -4.800781 3.28125 -4.375 3.4375 -3.96875 C 3.59375 -3.570312 3.8125 -3.222656 4.09375 -2.921875 C 4.382812 -2.617188 4.722656 -2.378906 5.109375 -2.203125 C 5.492188 -2.035156 5.921875 -1.953125 6.390625 -1.953125 Z M 6.390625 -1.953125 "/></g></g></g><g fill="#000000" fill-opacity="1"><g transform="translate(401.71164, 374.250002)"><g><path d="M 5.640625 0.171875 C 4.234375 0.171875 3.125 -0.21875 2.3125 -1 C 1.5 -1.78125 1.09375 -2.945312 1.09375 -4.5 L 1.09375 -10.5 L 3.40625 -10.5 L 3.40625 -4.5625 C 3.40625 -3.695312 3.601562 -3.046875 4 -2.609375 C 4.40625 -2.179688 4.960938 -1.96875 5.671875 -1.96875 C 6.378906 -1.96875 6.929688 -2.175781 7.328125 -2.59375 C 7.734375 -3.007812 7.9375 -3.640625 7.9375 -4.484375 L 7.9375 -10.5 L 10.25 -10.5 L 10.25 -4.578125 C 10.25 -3.773438 10.140625 -3.078125 9.921875 -2.484375 C 9.703125 -1.898438 9.394531 -1.410156 9 -1.015625 C 8.601562 -0.617188 8.117188 -0.320312 7.546875 -0.125 C 6.972656 0.0703125 6.335938 0.171875 5.640625 0.171875 Z M 5.640625 0.171875 "/></g></g></g><g fill="#000000" fill-opacity="1"><g transform="translate(414.266621, 374.250002)"><g><path d="M 1.265625 -10.5 L 6.0625 -10.5 C 7.394531 -10.5 8.414062 -10.144531 9.125 -9.4375 C 9.71875 -8.832031 10.015625 -8.03125 10.015625 -7.03125 L 10.015625 -7 C 10.015625 -6.15625 9.804688 -5.460938 9.390625 -4.921875 C 8.984375 -4.390625 8.441406 -4 7.765625 -3.75 L 10.328125 0 L 7.640625 0 L 5.390625 -3.359375 L 3.5625 -3.359375 L 3.5625 0 L 1.265625 0 Z M 5.90625 -5.40625 C 6.476562 -5.40625 6.914062 -5.535156 7.21875 -5.796875 C 7.53125 -6.066406 7.6875 -6.429688 7.6875 -6.890625 L 7.6875 -6.921875 C 7.6875 -7.421875 7.523438 -7.796875 7.203125 -8.046875 C 6.878906 -8.296875 6.429688 -8.421875 5.859375 -8.421875 L 3.5625 -8.421875 L 3.5625 -5.40625 Z M 5.90625 -5.40625 "/></g></g></g><g fill="#000000" fill-opacity="1"><g transform="translate(426.32661, 374.250002)"><g/></g></g><g fill="#000000" fill-opacity="1"><g transform="translate(432.041607, 374.250002)"><g><path d="M 5 0.15625 C 4.195312 0.15625 3.410156 0.0195312 2.640625 -0.25 C 1.867188 -0.53125 1.171875 -0.957031 0.546875 -1.53125 L 1.90625 -3.171875 C 2.382812 -2.773438 2.875 -2.460938 3.375 -2.234375 C 3.882812 -2.003906 4.441406 -1.890625 5.046875 -1.890625 C 5.523438 -1.890625 5.894531 -1.976562 6.15625 -2.15625 C 6.425781 -2.332031 6.5625 -2.570312 6.5625 -2.875 L 6.5625 -2.90625 C 6.5625 -3.0625 6.53125 -3.195312 6.46875 -3.3125 C 6.414062 -3.425781 6.3125 -3.53125 6.15625 -3.625 C 6 -3.726562 5.78125 -3.828125 5.5 -3.921875 C 5.226562 -4.023438 4.875 -4.132812 4.4375 -4.25 C 3.90625 -4.375 3.425781 -4.515625 3 -4.671875 C 2.570312 -4.835938 2.207031 -5.035156 1.90625 -5.265625 C 1.601562 -5.503906 1.367188 -5.796875 1.203125 -6.140625 C 1.035156 -6.492188 0.953125 -6.929688 0.953125 -7.453125 L 0.953125 -7.484375 C 0.953125 -7.960938 1.039062 -8.394531 1.21875 -8.78125 C 1.40625 -9.164062 1.660156 -9.5 1.984375 -9.78125 C 2.304688 -10.0625 2.691406 -10.273438 3.140625 -10.421875 C 3.597656 -10.578125 4.097656 -10.65625 4.640625 -10.65625 C 5.410156 -10.65625 6.113281 -10.535156 6.75 -10.296875 C 7.394531 -10.066406 7.988281 -9.738281 8.53125 -9.3125 L 7.328125 -7.578125 C 6.859375 -7.898438 6.398438 -8.148438 5.953125 -8.328125 C 5.503906 -8.515625 5.054688 -8.609375 4.609375 -8.609375 C 4.160156 -8.609375 3.820312 -8.519531 3.59375 -8.34375 C 3.363281 -8.164062 3.25 -7.945312 3.25 -7.6875 L 3.25 -7.671875 C 3.25 -7.492188 3.28125 -7.34375 3.34375 -7.21875 C 3.414062 -7.09375 3.535156 -6.976562 3.703125 -6.875 C 3.867188 -6.78125 4.097656 -6.6875 4.390625 -6.59375 C 4.691406 -6.507812 5.066406 -6.40625 5.515625 -6.28125 C 6.046875 -6.144531 6.519531 -5.988281 6.9375 -5.8125 C 7.351562 -5.632812 7.703125 -5.421875 7.984375 -5.171875 C 8.273438 -4.929688 8.488281 -4.644531 8.625 -4.3125 C 8.769531 -3.988281 8.84375 -3.597656 8.84375 -3.140625 L 8.84375 -3.109375 C 8.84375 -2.585938 8.75 -2.125 8.5625 -1.71875 C 8.375 -1.3125 8.109375 -0.96875 7.765625 -0.6875 C 7.429688 -0.414062 7.023438 -0.207031 6.546875 -0.0625 C 6.078125 0.0820312 5.5625 0.15625 5 0.15625 Z M 5 0.15625 "/></g></g></g><g fill="#000000" fill-opacity="1"><g transform="translate(442.856593, 374.250002)"><g><path d="M 1.265625 -10.5 L 9.1875 -10.5 L 9.1875 -8.4375 L 3.5625 -8.4375 L 3.5625 -6.3125 L 8.5 -6.3125 L 8.5 -4.265625 L 3.5625 -4.265625 L 3.5625 -2.0625 L 9.25 -2.0625 L 9.25 0 L 1.265625 0 Z M 1.265625 -10.5 "/></g></g></g><g fill="#000000" fill-opacity="1"><g transform="translate(454.121584, 374.250002)"><g><path d="M 6.1875 0.1875 C 5.414062 0.1875 4.695312 0.046875 4.03125 -0.234375 C 3.375 -0.515625 2.804688 -0.894531 2.328125 -1.375 C 1.847656 -1.863281 1.472656 -2.4375 1.203125 -3.09375 C 0.929688 -3.757812 0.796875 -4.46875 0.796875 -5.21875 L 0.796875 -5.25 C 0.796875 -6 0.929688 -6.703125 1.203125 -7.359375 C 1.472656 -8.015625 1.847656 -8.585938 2.328125 -9.078125 C 2.804688 -9.578125 3.378906 -9.96875 4.046875 -10.25 C 4.722656 -10.539062 5.460938 -10.6875 6.265625 -10.6875 C 6.753906 -10.6875 7.203125 -10.644531 7.609375 -10.5625 C 8.015625 -10.476562 8.378906 -10.363281 8.703125 -10.21875 C 9.035156 -10.082031 9.34375 -9.914062 9.625 -9.71875 C 9.90625 -9.519531 10.164062 -9.300781 10.40625 -9.0625 L 8.9375 -7.359375 C 8.53125 -7.734375 8.113281 -8.023438 7.6875 -8.234375 C 7.257812 -8.441406 6.78125 -8.546875 6.25 -8.546875 C 5.8125 -8.546875 5.40625 -8.460938 5.03125 -8.296875 C 4.65625 -8.128906 4.332031 -7.894531 4.0625 -7.59375 C 3.789062 -7.289062 3.578125 -6.941406 3.421875 -6.546875 C 3.273438 -6.148438 3.203125 -5.726562 3.203125 -5.28125 L 3.203125 -5.25 C 3.203125 -4.800781 3.273438 -4.375 3.421875 -3.96875 C 3.578125 -3.570312 3.785156 -3.222656 4.046875 -2.921875 C 4.316406 -2.617188 4.640625 -2.378906 5.015625 -2.203125 C 5.390625 -2.035156 5.800781 -1.953125 6.25 -1.953125 C 6.851562 -1.953125 7.363281 -2.0625 7.78125 -2.28125 C 8.195312 -2.5 8.609375 -2.800781 9.015625 -3.1875 L 10.484375 -1.6875 C 10.210938 -1.40625 9.929688 -1.144531 9.640625 -0.90625 C 9.347656 -0.675781 9.03125 -0.476562 8.6875 -0.3125 C 8.34375 -0.15625 7.960938 -0.0351562 7.546875 0.046875 C 7.140625 0.140625 6.6875 0.1875 6.1875 0.1875 Z M 6.1875 0.1875 "/></g></g></g><g fill="#000000" fill-opacity="1"><g transform="translate(466.406576, 374.250002)"><g><path d="M 5.640625 0.171875 C 4.234375 0.171875 3.125 -0.21875 2.3125 -1 C 1.5 -1.78125 1.09375 -2.945312 1.09375 -4.5 L 1.09375 -10.5 L 3.40625 -10.5 L 3.40625 -4.5625 C 3.40625 -3.695312 3.601562 -3.046875 4 -2.609375 C 4.40625 -2.179688 4.960938 -1.96875 5.671875 -1.96875 C 6.378906 -1.96875 6.929688 -2.175781 7.328125 -2.59375 C 7.734375 -3.007812 7.9375 -3.640625 7.9375 -4.484375 L 7.9375 -10.5 L 10.25 -10.5 L 10.25 -4.578125 C 10.25 -3.773438 10.140625 -3.078125 9.921875 -2.484375 C 9.703125 -1.898438 9.394531 -1.410156 9 -1.015625 C 8.601562 -0.617188 8.117188 -0.320312 7.546875 -0.125 C 6.972656 0.0703125 6.335938 0.171875 5.640625 0.171875 Z M 5.640625 0.171875 "/></g></g></g><g fill="#000000" fill-opacity="1"><g transform="translate(478.961568, 374.250002)"><g><path d="M 1.265625 -10.5 L 6.0625 -10.5 C 7.394531 -10.5 8.414062 -10.144531 9.125 -9.4375 C 9.71875 -8.832031 10.015625 -8.03125 10.015625 -7.03125 L 10.015625 -7 C 10.015625 -6.15625 9.804688 -5.460938 9.390625 -4.921875 C 8.984375 -4.390625 8.441406 -4 7.765625 -3.75 L 10.328125 0 L 7.640625 0 L 5.390625 -3.359375 L 3.5625 -3.359375 L 3.5625 0 L 1.265625 0 Z M 5.90625 -5.40625 C 6.476562 -5.40625 6.914062 -5.535156 7.21875 -5.796875 C 7.53125 -6.066406 7.6875 -6.429688 7.6875 -6.890625 L 7.6875 -6.921875 C 7.6875 -7.421875 7.523438 -7.796875 7.203125 -8.046875 C 6.878906 -8.296875 6.429688 -8.421875 5.859375 -8.421875 L 3.5625 -8.421875 L 3.5625 -5.40625 Z M 5.90625 -5.40625 "/></g></g></g><g fill="#000000" fill-opacity="1"><g transform="translate(491.021557, 374.250002)"><g><path d="M 1.359375 -10.5 L 3.671875 -10.5 L 3.671875 0 L 1.359375 0 Z M 1.359375 -10.5 "/></g></g></g><g fill="#000000" fill-opacity="1"><g transform="translate(497.276554, 374.250002)"><g><path d="M 3.703125 -8.375 L 0.515625 -8.375 L 0.515625 -10.5 L 9.203125 -10.5 L 9.203125 -8.375 L 6.015625 -8.375 L 6.015625 0 L 3.703125 0 Z M 3.703125 -8.375 "/></g></g></g><g fill="#000000" fill-opacity="1"><g transform="translate(508.211544, 374.250002)"><g><path d="M 4.21875 -4.140625 L 0.1875 -10.5 L 2.875 -10.5 L 5.390625 -6.28125 L 7.9375 -10.5 L 10.5625 -10.5 L 6.53125 -4.1875 L 6.53125 0 L 4.21875 0 Z M 4.21875 -4.140625 "/></g></g></g><g fill="#000000" fill-opacity="1"><g transform="translate(520.166545, 374.250002)"><g/></g></g><g fill="#000000" fill-opacity="1"><g transform="translate(525.881541, 374.250002)"><g><path d="M 1.265625 -10.5 L 9.25 -10.5 L 9.25 -8.40625 L 3.5625 -8.40625 L 3.5625 -6.171875 L 8.578125 -6.171875 L 8.578125 -4.0625 L 3.5625 -4.0625 L 3.5625 0 L 1.265625 0 Z M 1.265625 -10.5 "/></g></g></g><g fill="#000000" fill-opacity="1"><g transform="translate(536.936533, 374.250002)"><g><path d="M 6.359375 0.1875 C 5.546875 0.1875 4.800781 0.046875 4.125 -0.234375 C 3.445312 -0.523438 2.859375 -0.910156 2.359375 -1.390625 C 1.867188 -1.878906 1.484375 -2.453125 1.203125 -3.109375 C 0.929688 -3.765625 0.796875 -4.46875 0.796875 -5.21875 L 0.796875 -5.25 C 0.796875 -6 0.9375 -6.703125 1.21875 -7.359375 C 1.5 -8.015625 1.882812 -8.585938 2.375 -9.078125 C 2.875 -9.578125 3.460938 -9.96875 4.140625 -10.25 C 4.828125 -10.539062 5.578125 -10.6875 6.390625 -10.6875 C 7.203125 -10.6875 7.945312 -10.539062 8.625 -10.25 C 9.300781 -9.96875 9.882812 -9.582031 10.375 -9.09375 C 10.875 -8.613281 11.257812 -8.046875 11.53125 -7.390625 C 11.8125 -6.734375 11.953125 -6.03125 11.953125 -5.28125 L 11.953125 -5.25 C 11.953125 -4.5 11.8125 -3.796875 11.53125 -3.140625 C 11.25 -2.484375 10.859375 -1.90625 10.359375 -1.40625 C 9.867188 -0.914062 9.28125 -0.523438 8.59375 -0.234375 C 7.914062 0.046875 7.171875 0.1875 6.359375 0.1875 Z M 6.390625 -1.953125 C 6.847656 -1.953125 7.269531 -2.035156 7.65625 -2.203125 C 8.050781 -2.367188 8.382812 -2.601562 8.65625 -2.90625 C 8.9375 -3.207031 9.15625 -3.554688 9.3125 -3.953125 C 9.46875 -4.347656 9.546875 -4.769531 9.546875 -5.21875 L 9.546875 -5.25 C 9.546875 -5.695312 9.46875 -6.117188 9.3125 -6.515625 C 9.15625 -6.921875 8.929688 -7.273438 8.640625 -7.578125 C 8.359375 -7.878906 8.019531 -8.113281 7.625 -8.28125 C 7.238281 -8.457031 6.816406 -8.546875 6.359375 -8.546875 C 5.890625 -8.546875 5.460938 -8.460938 5.078125 -8.296875 C 4.691406 -8.128906 4.359375 -7.894531 4.078125 -7.59375 C 3.804688 -7.289062 3.59375 -6.941406 3.4375 -6.546875 C 3.28125 -6.148438 3.203125 -5.726562 3.203125 -5.28125 L 3.203125 -5.25 C 3.203125 -4.800781 3.28125 -4.375 3.4375 -3.96875 C 3.59375 -3.570312 3.8125 -3.222656 4.09375 -2.921875 C 4.382812 -2.617188 4.722656 -2.378906 5.109375 -2.203125 C 5.492188 -2.035156 5.921875 -1.953125 6.390625 -1.953125 Z M 6.390625 -1.953125 "/></g></g></g><g fill="#000000" fill-opacity="1"><g transform="translate(550.901529, 374.250002)"><g><path d="M 1.265625 -10.5 L 6.0625 -10.5 C 7.394531 -10.5 8.414062 -10.144531 9.125 -9.4375 C 9.71875 -8.832031 10.015625 -8.03125 10.015625 -7.03125 L 10.015625 -7 C 10.015625 -6.15625 9.804688 -5.460938 9.390625 -4.921875 C 8.984375 -4.390625 8.441406 -4 7.765625 -3.75 L 10.328125 0 L 7.640625 0 L 5.390625 -3.359375 L 3.5625 -3.359375 L 3.5625 0 L 1.265625 0 Z M 5.90625 -5.40625 C 6.476562 -5.40625 6.914062 -5.535156 7.21875 -5.796875 C 7.53125 -6.066406 7.6875 -6.429688 7.6875 -6.890625 L 7.6875 -6.921875 C 7.6875 -7.421875 7.523438 -7.796875 7.203125 -8.046875 C 6.878906 -8.296875 6.429688 -8.421875 5.859375 -8.421875 L 3.5625 -8.421875 L 3.5625 -5.40625 Z M 5.90625 -5.40625 "/></g></g></g><g fill="#000000" fill-opacity="1"><g transform="translate(562.961518, 374.250002)"><g><path d="M 6.3125 0.1875 C 5.488281 0.1875 4.738281 0.0507812 4.0625 -0.21875 C 3.394531 -0.488281 2.816406 -0.863281 2.328125 -1.34375 C 1.847656 -1.820312 1.472656 -2.390625 1.203125 -3.046875 C 0.929688 -3.710938 0.796875 -4.4375 0.796875 -5.21875 L 0.796875 -5.25 C 0.796875 -6 0.929688 -6.703125 1.203125 -7.359375 C 1.484375 -8.015625 1.867188 -8.585938 2.359375 -9.078125 C 2.847656 -9.578125 3.425781 -9.96875 4.09375 -10.25 C 4.757812 -10.539062 5.492188 -10.6875 6.296875 -10.6875 C 6.765625 -10.6875 7.191406 -10.648438 7.578125 -10.578125 C 7.960938 -10.515625 8.320312 -10.421875 8.65625 -10.296875 C 8.988281 -10.179688 9.296875 -10.03125 9.578125 -9.84375 C 9.867188 -9.664062 10.148438 -9.460938 10.421875 -9.234375 L 8.96875 -7.484375 C 8.769531 -7.648438 8.566406 -7.796875 8.359375 -7.921875 C 8.160156 -8.054688 7.953125 -8.171875 7.734375 -8.265625 C 7.523438 -8.359375 7.296875 -8.425781 7.046875 -8.46875 C 6.796875 -8.519531 6.519531 -8.546875 6.21875 -8.546875 C 5.800781 -8.546875 5.410156 -8.457031 5.046875 -8.28125 C 4.679688 -8.113281 4.359375 -7.878906 4.078125 -7.578125 C 3.804688 -7.285156 3.59375 -6.941406 3.4375 -6.546875 C 3.28125 -6.148438 3.203125 -5.726562 3.203125 -5.28125 L 3.203125 -5.25 C 3.203125 -4.769531 3.28125 -4.328125 3.4375 -3.921875 C 3.59375 -3.515625 3.8125 -3.160156 4.09375 -2.859375 C 4.382812 -2.566406 4.722656 -2.335938 5.109375 -2.171875 C 5.492188 -2.003906 5.921875 -1.921875 6.390625 -1.921875 C 7.253906 -1.921875 7.976562 -2.128906 8.5625 -2.546875 L 8.5625 -4.046875 L 6.234375 -4.046875 L 6.234375 -6.046875 L 10.796875 -6.046875 L 10.796875 -1.484375 C 10.253906 -1.023438 9.609375 -0.628906 8.859375 -0.296875 C 8.117188 0.0234375 7.269531 0.1875 6.3125 0.1875 Z M 6.3125 0.1875 "/></g></g></g><g fill="#000000" fill-opacity="1"><g transform="translate(575.936508, 374.250002)"><g><path d="M 1.265625 -10.5 L 9.1875 -10.5 L 9.1875 -8.4375 L 3.5625 -8.4375 L 3.5625 -6.3125 L 8.5 -6.3125 L 8.5 -4.265625 L 3.5625 -4.265625 L 3.5625 -2.0625 L 9.25 -2.0625 L 9.25 0 L 1.265625 0 Z M 1.265625 -10.5 "/></g></g></g><g fill="#000000" fill-opacity="1"><g transform="translate(274.107928, 339.716663)"><g><path d="M 25.109375 -38.828125 L 1.609375 -38.828125 L 1.609375 -43.875 L 31.84375 -43.875 L 31.84375 -38.828125 L 7.78125 -5.046875 L 33.296875 -5.046875 L 33.296875 0 L 0.796875 0 L 0.796875 -4.890625 Z M 25.109375 -38.828125 "/></g></g></g><g fill="#000000" fill-opacity="1"><g transform="translate(306.594802, 339.716663)"><g><path d="M 25.828125 -4.015625 C 29.304688 -4.015625 32.5 -4.945312 35.40625 -6.8125 C 38.320312 -8.6875 40.367188 -11.203125 41.546875 -14.359375 L 47.484375 -14.359375 C 45.828125 -9.703125 43.003906 -5.96875 39.015625 -3.15625 C 35.035156 -0.351562 30.664062 1.046875 25.90625 1.046875 C 21.789062 1.046875 17.976562 0.03125 14.46875 -2 C 10.96875 -4.03125 8.1875 -6.8125 6.125 -10.34375 C 4.070312 -13.875 3.046875 -17.726562 3.046875 -21.90625 C 3.046875 -26.070312 4.085938 -29.921875 6.171875 -33.453125 C 8.265625 -36.984375 11.0625 -39.789062 14.5625 -41.875 C 18.0625 -43.957031 21.816406 -45 25.828125 -45 C 30.109375 -45 34 -43.898438 37.5 -41.703125 C 41 -39.515625 43.765625 -36.613281 45.796875 -33 C 47.835938 -29.394531 48.859375 -25.585938 48.859375 -21.578125 L 48.765625 -19.890625 L 8.828125 -19.890625 C 8.984375 -17.054688 9.875 -14.421875 11.5 -11.984375 C 13.132812 -9.554688 15.234375 -7.617188 17.796875 -6.171875 C 20.367188 -4.734375 23.046875 -4.015625 25.828125 -4.015625 Z M 25.828125 -39.953125 C 23.097656 -39.953125 20.53125 -39.320312 18.125 -38.0625 C 15.71875 -36.800781 13.6875 -35.035156 12.03125 -32.765625 C 10.375 -30.492188 9.304688 -27.890625 8.828125 -24.953125 L 43.078125 -24.953125 C 42.273438 -29.390625 40.28125 -33 37.09375 -35.78125 C 33.914062 -38.5625 30.160156 -39.953125 25.828125 -39.953125 Z M 25.828125 -39.953125 "/></g></g></g><g fill="#000000" fill-opacity="1"><g transform="translate(357.130014, 339.716663)"><g><path d="M 24.546875 -39.953125 C 20.378906 -39.953125 17.050781 -38.535156 14.5625 -35.703125 C 12.070312 -32.867188 10.828125 -29.257812 10.828125 -24.875 L 10.828125 0 L 5.21875 0 L 5.21875 -43.875 L 10.828125 -43.875 L 10.828125 -38.265625 L 10.984375 -38.265625 C 12.378906 -40.398438 14.265625 -42.054688 16.640625 -43.234375 C 19.023438 -44.410156 21.632812 -45 24.46875 -45 C 28.425781 -45 31.859375 -44.144531 34.765625 -42.4375 C 37.679688 -40.726562 39.914062 -38.320312 41.46875 -35.21875 C 43.019531 -32.113281 43.796875 -28.53125 43.796875 -24.46875 L 43.796875 0 L 38.1875 0 L 38.1875 -24.46875 C 38.1875 -27.675781 37.597656 -30.441406 36.421875 -32.765625 C 35.242188 -35.097656 33.609375 -36.878906 31.515625 -38.109375 C 29.429688 -39.335938 27.109375 -39.953125 24.546875 -39.953125 Z M 24.546875 -39.953125 "/></g></g></g><g fill="#000000" fill-opacity="1"><g transform="translate(402.466209, 339.82175)"><g><path d="M 25.421875 -59.359375 C 31.472656 -59.359375 36.207031 -58.609375 39.625 -57.109375 C 42.832031 -55.617188 45.375 -53.28125 47.25 -50.09375 C 49.125 -46.914062 50.0625 -43.320312 50.0625 -39.3125 C 50.0625 -32.945312 48.117188 -27.90625 44.234375 -24.1875 C 40.359375 -20.46875 34.597656 -18.609375 26.953125 -18.609375 L 19.890625 -18.609375 L 19.890625 0 L 5.375 0 L 5.375 -59.359375 Z M 35.53125 -39.0625 C 35.53125 -41.46875 34.753906 -43.234375 33.203125 -44.359375 C 31.660156 -45.484375 29.203125 -46.046875 25.828125 -46.046875 L 19.890625 -46.046875 L 19.890625 -31.921875 L 26.390625 -31.921875 C 29.492188 -31.921875 31.789062 -32.484375 33.28125 -33.609375 C 34.78125 -34.734375 35.53125 -36.550781 35.53125 -39.0625 Z M 35.53125 -39.0625 "/></g></g></g><g fill="#000000" fill-opacity="1"><g transform="translate(451.881483, 339.82175)"><g><path d="M 38.109375 -4.8125 C 37.140625 -2.882812 35.453125 -1.34375 33.046875 -0.1875 C 30.640625 0.957031 27.96875 1.53125 25.03125 1.53125 C 20.75 1.53125 16.910156 0.488281 13.515625 -1.59375 C 10.117188 -3.6875 7.472656 -6.550781 5.578125 -10.1875 C 3.679688 -13.820312 2.734375 -17.859375 2.734375 -22.296875 C 2.734375 -26.628906 3.707031 -30.613281 5.65625 -34.25 C 7.601562 -37.882812 10.273438 -40.757812 13.671875 -42.875 C 17.066406 -44.988281 20.851562 -46.046875 25.03125 -46.046875 C 27.8125 -46.046875 30.378906 -45.492188 32.734375 -44.390625 C 35.085938 -43.296875 36.878906 -41.757812 38.109375 -39.78125 L 38.265625 -39.78125 L 38.265625 -44.515625 L 51.578125 -44.515625 L 51.578125 0 L 38.265625 0 L 38.265625 -4.8125 Z M 38.265625 -22.296875 C 38.265625 -24.328125 37.753906 -26.210938 36.734375 -27.953125 C 35.722656 -29.691406 34.347656 -31.066406 32.609375 -32.078125 C 30.867188 -33.097656 28.984375 -33.609375 26.953125 -33.609375 C 24.972656 -33.609375 23.140625 -33.097656 21.453125 -32.078125 C 19.773438 -31.066406 18.453125 -29.675781 17.484375 -27.90625 C 16.523438 -26.144531 16.046875 -24.222656 16.046875 -22.140625 C 16.046875 -20.109375 16.539062 -18.234375 17.53125 -16.515625 C 18.519531 -14.804688 19.851562 -13.441406 21.53125 -12.421875 C 23.21875 -11.410156 25.078125 -10.90625 27.109375 -10.90625 C 29.140625 -10.90625 31.007812 -11.410156 32.71875 -12.421875 C 34.4375 -13.441406 35.789062 -14.820312 36.78125 -16.5625 C 37.769531 -18.300781 38.265625 -20.210938 38.265625 -22.296875 Z M 38.265625 -22.296875 "/></g></g></g><g fill="#000000" fill-opacity="1"><g transform="translate(506.751694, 339.82175)"><g><path d="M 19.65625 -35.375 C 18.53125 -35.375 17.601562 -35.09375 16.875 -34.53125 C 16.15625 -33.96875 15.796875 -33.257812 15.796875 -32.40625 C 15.796875 -31.226562 16.394531 -30.265625 17.59375 -29.515625 C 18.800781 -28.765625 20.984375 -27.988281 24.140625 -27.1875 C 29.273438 -25.851562 32.898438 -24.101562 35.015625 -21.9375 C 37.128906 -19.769531 38.1875 -17.003906 38.1875 -13.640625 C 38.1875 -10.585938 37.382812 -7.925781 35.78125 -5.65625 C 34.175781 -3.382812 31.992188 -1.617188 29.234375 -0.359375 C 26.484375 0.898438 23.425781 1.53125 20.0625 1.53125 C 15.03125 1.53125 10.867188 0.191406 7.578125 -2.484375 C 4.285156 -5.160156 2.398438 -8.742188 1.921875 -13.234375 L 15.15625 -13.234375 C 15.375 -11.898438 15.921875 -10.882812 16.796875 -10.1875 C 17.679688 -9.488281 18.820312 -9.140625 20.21875 -9.140625 C 21.445312 -9.140625 22.53125 -9.457031 23.46875 -10.09375 C 24.40625 -10.738281 24.875 -11.570312 24.875 -12.59375 C 24.875 -13.875 24.320312 -14.914062 23.21875 -15.71875 C 22.125 -16.519531 19.945312 -17.429688 16.6875 -18.453125 C 11.394531 -20.054688 7.703125 -21.925781 5.609375 -24.0625 C 3.523438 -26.207031 2.484375 -28.695312 2.484375 -31.53125 C 2.484375 -34.363281 3.285156 -36.890625 4.890625 -39.109375 C 6.492188 -41.328125 8.617188 -43.035156 11.265625 -44.234375 C 13.910156 -45.441406 16.734375 -46.046875 19.734375 -46.046875 C 24.597656 -46.046875 28.582031 -44.785156 31.6875 -42.265625 C 34.789062 -39.753906 36.503906 -36.332031 36.828125 -32 L 23.75 -32 C 23.695312 -34.25 22.332031 -35.375 19.65625 -35.375 Z M 19.65625 -35.375 "/></g></g></g><g fill="#000000" fill-opacity="1"><g transform="translate(545.176876, 339.82175)"><g><path d="M 19.65625 -35.375 C 18.53125 -35.375 17.601562 -35.09375 16.875 -34.53125 C 16.15625 -33.96875 15.796875 -33.257812 15.796875 -32.40625 C 15.796875 -31.226562 16.394531 -30.265625 17.59375 -29.515625 C 18.800781 -28.765625 20.984375 -27.988281 24.140625 -27.1875 C 29.273438 -25.851562 32.898438 -24.101562 35.015625 -21.9375 C 37.128906 -19.769531 38.1875 -17.003906 38.1875 -13.640625 C 38.1875 -10.585938 37.382812 -7.925781 35.78125 -5.65625 C 34.175781 -3.382812 31.992188 -1.617188 29.234375 -0.359375 C 26.484375 0.898438 23.425781 1.53125 20.0625 1.53125 C 15.03125 1.53125 10.867188 0.191406 7.578125 -2.484375 C 4.285156 -5.160156 2.398438 -8.742188 1.921875 -13.234375 L 15.15625 -13.234375 C 15.375 -11.898438 15.921875 -10.882812 16.796875 -10.1875 C 17.679688 -9.488281 18.820312 -9.140625 20.21875 -9.140625 C 21.445312 -9.140625 22.53125 -9.457031 23.46875 -10.09375 C 24.40625 -10.738281 24.875 -11.570312 24.875 -12.59375 C 24.875 -13.875 24.320312 -14.914062 23.21875 -15.71875 C 22.125 -16.519531 19.945312 -17.429688 16.6875 -18.453125 C 11.394531 -20.054688 7.703125 -21.925781 5.609375 -24.0625 C 3.523438 -26.207031 2.484375 -28.695312 2.484375 -31.53125 C 2.484375 -34.363281 3.285156 -36.890625 4.890625 -39.109375 C 6.492188 -41.328125 8.617188 -43.035156 11.265625 -44.234375 C 13.910156 -45.441406 16.734375 -46.046875 19.734375 -46.046875 C 24.597656 -46.046875 28.582031 -44.785156 31.6875 -42.265625 C 34.789062 -39.753906 36.503906 -36.332031 36.828125 -32 L 23.75 -32 C 23.695312 -34.25 22.332031 -35.375 19.65625 -35.375 Z M 19.65625 -35.375 "/></g></g></g></svg>