<svg xmlns="http://www.w3.org/2000/svg" xmlns:xlink="http://www.w3.org/1999/xlink" width="300" zoomAndPan="magnify" viewBox="0 0 224.87999 149.999998" height="200" preserveAspectRatio="xMidYMid meet" version="1.0"><defs><g/><clipPath id="d307cf56bb"><path d="M 30 67 L 68 67 L 68 98.226562 L 30 98.226562 Z M 30 67 " clip-rule="nonzero"/></clipPath><clipPath id="11d85e0712"><path d="M 30 72 L 55 72 L 55 98.226562 L 30 98.226562 Z M 30 72 " clip-rule="nonzero"/></clipPath></defs><path fill="#0c6d03" d="M 38.398438 77.066406 C 38.398438 77.066406 30.511719 69.761719 31.320312 64.894531 C 32.078125 59.972656 42.128906 51.75 46.667969 52.019531 C 51.207031 52.234375 57.527344 62.296875 57.527344 62.296875 L 54.179688 65.003906 C 54.179688 65.003906 48.34375 57.535156 46.722656 56.671875 C 45.101562 55.753906 36.617188 63.269531 36.347656 64.894531 C 36.074219 66.515625 42.503906 74.359375 42.503906 74.359375 Z M 38.398438 77.066406 " fill-opacity="1" fill-rule="evenodd"/><path fill="#50df4e" d="M 55.851562 63.648438 L 54.179688 65.003906 C 54.179688 65.003906 48.34375 57.535156 46.722656 56.671875 C 45.101562 55.753906 36.617188 63.269531 36.347656 64.894531 C 36.347656 64.894531 36.128906 62.894531 37.859375 60.402344 C 39.589844 57.914062 45.046875 54.074219 46.777344 54.292969 C 48.070312 54.398438 53.316406 60.621094 55.855469 63.648438 Z M 55.851562 63.648438 " fill-opacity="1" fill-rule="evenodd"/><g clip-path="url(#d307cf56bb)"><path fill="#0dff00" d="M 54.878906 98.21875 C 60.175781 96.160156 73.902344 79.664062 64.609375 70.464844 C 55.3125 61.269531 48.828125 76.308594 48.828125 76.308594 C 48.828125 76.308594 44.667969 68.902344 34.726562 74.089844 C 24.835938 79.285156 31.105469 97.621094 54.878906 98.214844 Z M 54.878906 98.21875 " fill-opacity="1" fill-rule="evenodd"/></g><g clip-path="url(#11d85e0712)"><path fill="#2ccd1d" d="M 43.261719 72.414062 C 41.105469 71.980469 38.292969 72.195312 34.726562 74.089844 C 24.835938 79.285156 31.105469 97.621094 54.878906 98.214844 C 54.878906 98.214844 37.371094 92.375 36.292969 81.878906 C 35.644531 75.820312 39.695312 73.386719 43.261719 72.414062 Z M 43.261719 72.414062 " fill-opacity="1" fill-rule="evenodd"/></g><path fill="#50df4e" d="M 49.261719 85.394531 L 49.097656 89.777344 L 53.421875 88.855469 L 51.53125 84.90625 C 51.53125 84.90625 53.800781 82.90625 51.964844 81.121094 C 50.070312 79.390625 44.558594 82.042969 49.261719 85.394531 Z M 49.261719 85.394531 " fill-opacity="1" fill-rule="evenodd"/><path fill="#0c6d03" d="M 49.261719 85.394531 L 49.097656 89.777344 L 52.019531 89.179688 L 50.234375 85.503906 C 50.234375 85.503906 52.503906 83.5 50.667969 81.714844 C 50.332031 81.453125 49.953125 81.285156 49.53125 81.207031 C 49.113281 81.128906 48.699219 81.15625 48.289062 81.285156 C 47.15625 82.09375 46.832031 83.664062 49.261719 85.394531 Z M 49.261719 85.394531 " fill-opacity="1" fill-rule="evenodd"/><path fill="#0dff00" d="M 71.570312 85.375 L 168.699219 85.375 C 168.929688 85.375 169.117188 85.5625 169.117188 85.792969 L 169.117188 93.328125 C 169.117188 93.558594 168.929688 93.746094 168.699219 93.746094 L 71.570312 93.746094 C 71.460938 93.746094 71.355469 93.703125 71.277344 93.625 C 71.199219 93.546875 71.152344 93.441406 71.152344 93.328125 L 71.152344 85.792969 C 71.152344 85.683594 71.199219 85.574219 71.277344 85.496094 C 71.355469 85.417969 71.460938 85.375 71.570312 85.375 Z M 71.570312 85.375 " fill-opacity="1" fill-rule="nonzero"/><g fill="#000000" fill-opacity="1"><g transform="translate(74.427188, 91.100244)"><g><path d="M 1.84375 0.046875 C 1.601562 0.046875 1.382812 0.0078125 1.1875 -0.0625 C 0.988281 -0.144531 0.816406 -0.253906 0.671875 -0.390625 C 0.535156 -0.535156 0.425781 -0.703125 0.34375 -0.890625 C 0.269531 -1.085938 0.234375 -1.300781 0.234375 -1.53125 C 0.234375 -1.75 0.269531 -1.953125 0.34375 -2.140625 C 0.425781 -2.335938 0.539062 -2.507812 0.6875 -2.65625 C 0.832031 -2.800781 1.003906 -2.914062 1.203125 -3 C 1.398438 -3.082031 1.613281 -3.125 1.84375 -3.125 C 1.976562 -3.125 2.101562 -3.113281 2.21875 -3.09375 C 2.332031 -3.070312 2.4375 -3.046875 2.53125 -3.015625 C 2.625 -2.984375 2.710938 -2.941406 2.796875 -2.890625 C 2.890625 -2.835938 2.972656 -2.773438 3.046875 -2.703125 L 2.625 -2.1875 C 2.5625 -2.238281 2.5 -2.28125 2.4375 -2.3125 C 2.382812 -2.351562 2.328125 -2.382812 2.265625 -2.40625 C 2.203125 -2.4375 2.132812 -2.457031 2.0625 -2.46875 C 1.988281 -2.488281 1.910156 -2.5 1.828125 -2.5 C 1.703125 -2.5 1.582031 -2.472656 1.46875 -2.421875 C 1.363281 -2.367188 1.269531 -2.300781 1.1875 -2.21875 C 1.113281 -2.132812 1.050781 -2.035156 1 -1.921875 C 0.957031 -1.804688 0.9375 -1.679688 0.9375 -1.546875 L 0.9375 -1.53125 C 0.9375 -1.394531 0.957031 -1.265625 1 -1.140625 C 1.050781 -1.023438 1.117188 -0.921875 1.203125 -0.828125 C 1.285156 -0.742188 1.382812 -0.675781 1.5 -0.625 C 1.613281 -0.582031 1.738281 -0.5625 1.875 -0.5625 C 2.125 -0.5625 2.332031 -0.625 2.5 -0.75 L 2.5 -1.1875 L 1.828125 -1.1875 L 1.828125 -1.765625 L 3.15625 -1.765625 L 3.15625 -0.4375 C 3 -0.300781 2.8125 -0.1875 2.59375 -0.09375 C 2.375 0 2.125 0.046875 1.84375 0.046875 Z M 1.84375 0.046875 "/></g></g></g><g fill="#000000" fill-opacity="1"><g transform="translate(78.231129, 91.100244)"><g><path d="M 0.375 -3.078125 L 2.6875 -3.078125 L 2.6875 -2.46875 L 1.046875 -2.46875 L 1.046875 -1.84375 L 2.484375 -1.84375 L 2.484375 -1.25 L 1.046875 -1.25 L 1.046875 -0.59375 L 2.703125 -0.59375 L 2.703125 0 L 0.375 0 Z M 0.375 -3.078125 "/></g></g></g><g fill="#000000" fill-opacity="1"><g transform="translate(81.533742, 91.100244)"><g><path d="M 0.375 -3.078125 L 1 -3.078125 L 2.4375 -1.1875 L 2.4375 -3.078125 L 3.09375 -3.078125 L 3.09375 0 L 2.53125 0 L 1.03125 -1.953125 L 1.03125 0 L 0.375 0 Z M 0.375 -3.078125 "/></g></g></g><g fill="#000000" fill-opacity="1"><g transform="translate(85.364068, 91.100244)"><g><path d="M 0.375 -3.078125 L 2.6875 -3.078125 L 2.6875 -2.46875 L 1.046875 -2.46875 L 1.046875 -1.84375 L 2.484375 -1.84375 L 2.484375 -1.25 L 1.046875 -1.25 L 1.046875 -0.59375 L 2.703125 -0.59375 L 2.703125 0 L 0.375 0 Z M 0.375 -3.078125 "/></g></g></g><g fill="#000000" fill-opacity="1"><g transform="translate(88.666681, 91.100244)"><g><path d="M 0.375 -3.078125 L 1.78125 -3.078125 C 2.164062 -3.078125 2.460938 -2.972656 2.671875 -2.765625 C 2.847656 -2.585938 2.9375 -2.351562 2.9375 -2.0625 L 2.9375 -2.046875 C 2.9375 -1.796875 2.875 -1.59375 2.75 -1.4375 C 2.625 -1.28125 2.46875 -1.164062 2.28125 -1.09375 L 3.03125 0 L 2.234375 0 L 1.578125 -0.984375 L 1.046875 -0.984375 L 1.046875 0 L 0.375 0 Z M 1.734375 -1.578125 C 1.898438 -1.578125 2.023438 -1.613281 2.109375 -1.6875 C 2.203125 -1.769531 2.25 -1.878906 2.25 -2.015625 L 2.25 -2.03125 C 2.25 -2.175781 2.203125 -2.285156 2.109375 -2.359375 C 2.015625 -2.429688 1.882812 -2.46875 1.71875 -2.46875 L 1.046875 -2.46875 L 1.046875 -1.578125 Z M 1.734375 -1.578125 "/></g></g></g><g fill="#000000" fill-opacity="1"><g transform="translate(92.202368, 91.100244)"><g><path d="M 1.421875 -3.09375 L 2.046875 -3.09375 L 3.359375 0 L 2.65625 0 L 2.375 -0.6875 L 1.078125 -0.6875 L 0.796875 0 L 0.109375 0 Z M 2.140625 -1.28125 L 1.71875 -2.28125 L 1.3125 -1.28125 Z M 2.140625 -1.28125 "/></g></g></g><g fill="#000000" fill-opacity="1"><g transform="translate(96.032695, 91.100244)"><g><path d="M 1.078125 -2.453125 L 0.15625 -2.453125 L 0.15625 -3.078125 L 2.703125 -3.078125 L 2.703125 -2.453125 L 1.765625 -2.453125 L 1.765625 0 L 1.078125 0 Z M 1.078125 -2.453125 "/></g></g></g><g fill="#000000" fill-opacity="1"><g transform="translate(99.23856, 91.100244)"><g><path d="M 0.375 -3.078125 L 2.6875 -3.078125 L 2.6875 -2.46875 L 1.046875 -2.46875 L 1.046875 -1.84375 L 2.484375 -1.84375 L 2.484375 -1.25 L 1.046875 -1.25 L 1.046875 -0.59375 L 2.703125 -0.59375 L 2.703125 0 L 0.375 0 Z M 0.375 -3.078125 "/></g></g></g><g fill="#000000" fill-opacity="1"><g transform="translate(102.541173, 91.100244)"><g/></g></g><g fill="#000000" fill-opacity="1"><g transform="translate(104.216668, 91.100244)"><g><path d="M 1.234375 -1.21875 L 0.046875 -3.078125 L 0.84375 -3.078125 L 1.578125 -1.84375 L 2.328125 -3.078125 L 3.09375 -3.078125 L 1.90625 -1.21875 L 1.90625 0 L 1.234375 0 Z M 1.234375 -1.21875 "/></g></g></g><g fill="#000000" fill-opacity="1"><g transform="translate(107.721569, 91.100244)"><g><path d="M 1.859375 0.046875 C 1.617188 0.046875 1.398438 0.00390625 1.203125 -0.078125 C 1.003906 -0.160156 0.832031 -0.269531 0.6875 -0.40625 C 0.539062 -0.550781 0.425781 -0.71875 0.34375 -0.90625 C 0.269531 -1.101562 0.234375 -1.3125 0.234375 -1.53125 C 0.234375 -1.75 0.273438 -1.953125 0.359375 -2.140625 C 0.441406 -2.335938 0.550781 -2.507812 0.6875 -2.65625 C 0.832031 -2.800781 1.003906 -2.914062 1.203125 -3 C 1.410156 -3.082031 1.632812 -3.125 1.875 -3.125 C 2.101562 -3.125 2.316406 -3.082031 2.515625 -3 C 2.722656 -2.914062 2.898438 -2.800781 3.046875 -2.65625 C 3.191406 -2.519531 3.300781 -2.351562 3.375 -2.15625 C 3.457031 -1.96875 3.5 -1.765625 3.5 -1.546875 L 3.5 -1.53125 C 3.5 -1.3125 3.457031 -1.101562 3.375 -0.90625 C 3.289062 -0.71875 3.175781 -0.550781 3.03125 -0.40625 C 2.882812 -0.269531 2.710938 -0.160156 2.515625 -0.078125 C 2.316406 0.00390625 2.097656 0.046875 1.859375 0.046875 Z M 1.875 -0.578125 C 2.007812 -0.578125 2.132812 -0.597656 2.25 -0.640625 C 2.363281 -0.691406 2.457031 -0.757812 2.53125 -0.84375 C 2.613281 -0.9375 2.675781 -1.039062 2.71875 -1.15625 C 2.769531 -1.269531 2.796875 -1.394531 2.796875 -1.53125 C 2.796875 -1.664062 2.769531 -1.789062 2.71875 -1.90625 C 2.675781 -2.019531 2.613281 -2.117188 2.53125 -2.203125 C 2.445312 -2.296875 2.347656 -2.367188 2.234375 -2.421875 C 2.117188 -2.472656 1.992188 -2.5 1.859375 -2.5 C 1.722656 -2.5 1.597656 -2.472656 1.484375 -2.421875 C 1.367188 -2.378906 1.269531 -2.3125 1.1875 -2.21875 C 1.113281 -2.132812 1.050781 -2.035156 1 -1.921875 C 0.957031 -1.804688 0.9375 -1.679688 0.9375 -1.546875 L 0.9375 -1.53125 C 0.9375 -1.40625 0.957031 -1.28125 1 -1.15625 C 1.050781 -1.039062 1.117188 -0.9375 1.203125 -0.84375 C 1.285156 -0.757812 1.382812 -0.691406 1.5 -0.640625 C 1.613281 -0.597656 1.738281 -0.578125 1.875 -0.578125 Z M 1.875 -0.578125 "/></g></g></g><g fill="#000000" fill-opacity="1"><g transform="translate(111.815751, 91.100244)"><g><path d="M 1.65625 0.046875 C 1.238281 0.046875 0.910156 -0.0664062 0.671875 -0.296875 C 0.441406 -0.523438 0.328125 -0.863281 0.328125 -1.3125 L 0.328125 -3.078125 L 1 -3.078125 L 1 -1.328125 C 1 -1.078125 1.054688 -0.890625 1.171875 -0.765625 C 1.285156 -0.640625 1.445312 -0.578125 1.65625 -0.578125 C 1.863281 -0.578125 2.023438 -0.632812 2.140625 -0.75 C 2.265625 -0.875 2.328125 -1.0625 2.328125 -1.3125 L 2.328125 -3.078125 L 3 -3.078125 L 3 -1.34375 C 3 -1.101562 2.96875 -0.894531 2.90625 -0.71875 C 2.84375 -0.550781 2.75 -0.410156 2.625 -0.296875 C 2.507812 -0.179688 2.367188 -0.09375 2.203125 -0.03125 C 2.035156 0.0195312 1.851562 0.046875 1.65625 0.046875 Z M 1.65625 0.046875 "/></g></g></g><g fill="#000000" fill-opacity="1"><g transform="translate(115.496555, 91.100244)"><g><path d="M 0.375 -3.078125 L 1.78125 -3.078125 C 2.164062 -3.078125 2.460938 -2.972656 2.671875 -2.765625 C 2.847656 -2.585938 2.9375 -2.351562 2.9375 -2.0625 L 2.9375 -2.046875 C 2.9375 -1.796875 2.875 -1.59375 2.75 -1.4375 C 2.625 -1.28125 2.46875 -1.164062 2.28125 -1.09375 L 3.03125 0 L 2.234375 0 L 1.578125 -0.984375 L 1.046875 -0.984375 L 1.046875 0 L 0.375 0 Z M 1.734375 -1.578125 C 1.898438 -1.578125 2.023438 -1.613281 2.109375 -1.6875 C 2.203125 -1.769531 2.25 -1.878906 2.25 -2.015625 L 2.25 -2.03125 C 2.25 -2.175781 2.203125 -2.285156 2.109375 -2.359375 C 2.015625 -2.429688 1.882812 -2.46875 1.71875 -2.46875 L 1.046875 -2.46875 L 1.046875 -1.578125 Z M 1.734375 -1.578125 "/></g></g></g><g fill="#000000" fill-opacity="1"><g transform="translate(119.03224, 91.100244)"><g/></g></g><g fill="#000000" fill-opacity="1"><g transform="translate(120.707733, 91.100244)"><g><path d="M 1.46875 0.046875 C 1.226562 0.046875 0.992188 0.00390625 0.765625 -0.078125 C 0.546875 -0.160156 0.34375 -0.285156 0.15625 -0.453125 L 0.5625 -0.921875 C 0.695312 -0.804688 0.835938 -0.710938 0.984375 -0.640625 C 1.140625 -0.578125 1.300781 -0.546875 1.46875 -0.546875 C 1.613281 -0.546875 1.722656 -0.570312 1.796875 -0.625 C 1.878906 -0.675781 1.921875 -0.75 1.921875 -0.84375 L 1.921875 -0.859375 C 1.921875 -0.898438 1.910156 -0.9375 1.890625 -0.96875 C 1.878906 -1 1.847656 -1.03125 1.796875 -1.0625 C 1.753906 -1.09375 1.691406 -1.117188 1.609375 -1.140625 C 1.535156 -1.171875 1.429688 -1.207031 1.296875 -1.25 C 1.140625 -1.28125 1 -1.316406 0.875 -1.359375 C 0.75 -1.410156 0.640625 -1.46875 0.546875 -1.53125 C 0.460938 -1.601562 0.394531 -1.691406 0.34375 -1.796875 C 0.300781 -1.898438 0.28125 -2.03125 0.28125 -2.1875 C 0.28125 -2.332031 0.304688 -2.457031 0.359375 -2.5625 C 0.410156 -2.675781 0.484375 -2.773438 0.578125 -2.859375 C 0.671875 -2.941406 0.785156 -3.003906 0.921875 -3.046875 C 1.054688 -3.097656 1.203125 -3.125 1.359375 -3.125 C 1.578125 -3.125 1.78125 -3.085938 1.96875 -3.015625 C 2.164062 -2.953125 2.34375 -2.859375 2.5 -2.734375 L 2.140625 -2.21875 C 2.003906 -2.3125 1.867188 -2.382812 1.734375 -2.4375 C 1.609375 -2.488281 1.476562 -2.515625 1.34375 -2.515625 C 1.21875 -2.515625 1.117188 -2.488281 1.046875 -2.4375 C 0.984375 -2.382812 0.953125 -2.320312 0.953125 -2.25 C 0.953125 -2.195312 0.960938 -2.148438 0.984375 -2.109375 C 1.003906 -2.078125 1.035156 -2.046875 1.078125 -2.015625 C 1.128906 -1.984375 1.195312 -1.953125 1.28125 -1.921875 C 1.375 -1.898438 1.484375 -1.875 1.609375 -1.84375 C 1.765625 -1.800781 1.90625 -1.753906 2.03125 -1.703125 C 2.15625 -1.648438 2.257812 -1.585938 2.34375 -1.515625 C 2.425781 -1.441406 2.488281 -1.359375 2.53125 -1.265625 C 2.570312 -1.171875 2.59375 -1.054688 2.59375 -0.921875 L 2.59375 -0.90625 C 2.59375 -0.757812 2.5625 -0.625 2.5 -0.5 C 2.445312 -0.382812 2.367188 -0.285156 2.265625 -0.203125 C 2.171875 -0.117188 2.054688 -0.0546875 1.921875 -0.015625 C 1.785156 0.0234375 1.632812 0.046875 1.46875 0.046875 Z M 1.46875 0.046875 "/></g></g></g><g fill="#000000" fill-opacity="1"><g transform="translate(123.878415, 91.100244)"><g><path d="M 0.375 -3.078125 L 2.6875 -3.078125 L 2.6875 -2.46875 L 1.046875 -2.46875 L 1.046875 -1.84375 L 2.484375 -1.84375 L 2.484375 -1.25 L 1.046875 -1.25 L 1.046875 -0.59375 L 2.703125 -0.59375 L 2.703125 0 L 0.375 0 Z M 0.375 -3.078125 "/></g></g></g><g fill="#000000" fill-opacity="1"><g transform="translate(127.181026, 91.100244)"><g><path d="M 1.8125 0.046875 C 1.582031 0.046875 1.367188 0.0078125 1.171875 -0.0625 C 0.984375 -0.144531 0.816406 -0.257812 0.671875 -0.40625 C 0.535156 -0.550781 0.425781 -0.71875 0.34375 -0.90625 C 0.269531 -1.101562 0.234375 -1.3125 0.234375 -1.53125 C 0.234375 -1.75 0.269531 -1.953125 0.34375 -2.140625 C 0.425781 -2.335938 0.535156 -2.507812 0.671875 -2.65625 C 0.816406 -2.800781 0.988281 -2.914062 1.1875 -3 C 1.382812 -3.082031 1.597656 -3.125 1.828125 -3.125 C 1.972656 -3.125 2.101562 -3.113281 2.21875 -3.09375 C 2.34375 -3.070312 2.453125 -3.039062 2.546875 -3 C 2.648438 -2.957031 2.738281 -2.90625 2.8125 -2.84375 C 2.894531 -2.78125 2.972656 -2.71875 3.046875 -2.65625 L 2.609375 -2.15625 C 2.492188 -2.257812 2.375 -2.34375 2.25 -2.40625 C 2.125 -2.46875 1.984375 -2.5 1.828125 -2.5 C 1.703125 -2.5 1.582031 -2.472656 1.46875 -2.421875 C 1.363281 -2.378906 1.269531 -2.3125 1.1875 -2.21875 C 1.113281 -2.132812 1.050781 -2.035156 1 -1.921875 C 0.957031 -1.804688 0.9375 -1.679688 0.9375 -1.546875 L 0.9375 -1.53125 C 0.9375 -1.40625 0.957031 -1.28125 1 -1.15625 C 1.050781 -1.039062 1.113281 -0.9375 1.1875 -0.84375 C 1.257812 -0.757812 1.351562 -0.691406 1.46875 -0.640625 C 1.582031 -0.597656 1.703125 -0.578125 1.828125 -0.578125 C 2.003906 -0.578125 2.148438 -0.609375 2.265625 -0.671875 C 2.390625 -0.734375 2.515625 -0.820312 2.640625 -0.9375 L 3.0625 -0.5 C 2.988281 -0.414062 2.910156 -0.335938 2.828125 -0.265625 C 2.742188 -0.203125 2.648438 -0.144531 2.546875 -0.09375 C 2.441406 -0.0390625 2.328125 -0.00390625 2.203125 0.015625 C 2.085938 0.0351562 1.957031 0.046875 1.8125 0.046875 Z M 1.8125 0.046875 "/></g></g></g><g fill="#000000" fill-opacity="1"><g transform="translate(130.782676, 91.100244)"><g><path d="M 1.65625 0.046875 C 1.238281 0.046875 0.910156 -0.0664062 0.671875 -0.296875 C 0.441406 -0.523438 0.328125 -0.863281 0.328125 -1.3125 L 0.328125 -3.078125 L 1 -3.078125 L 1 -1.328125 C 1 -1.078125 1.054688 -0.890625 1.171875 -0.765625 C 1.285156 -0.640625 1.445312 -0.578125 1.65625 -0.578125 C 1.863281 -0.578125 2.023438 -0.632812 2.140625 -0.75 C 2.265625 -0.875 2.328125 -1.0625 2.328125 -1.3125 L 2.328125 -3.078125 L 3 -3.078125 L 3 -1.34375 C 3 -1.101562 2.96875 -0.894531 2.90625 -0.71875 C 2.84375 -0.550781 2.75 -0.410156 2.625 -0.296875 C 2.507812 -0.179688 2.367188 -0.09375 2.203125 -0.03125 C 2.035156 0.0195312 1.851562 0.046875 1.65625 0.046875 Z M 1.65625 0.046875 "/></g></g></g><g fill="#000000" fill-opacity="1"><g transform="translate(134.463484, 91.100244)"><g><path d="M 0.375 -3.078125 L 1.78125 -3.078125 C 2.164062 -3.078125 2.460938 -2.972656 2.671875 -2.765625 C 2.847656 -2.585938 2.9375 -2.351562 2.9375 -2.0625 L 2.9375 -2.046875 C 2.9375 -1.796875 2.875 -1.59375 2.75 -1.4375 C 2.625 -1.28125 2.46875 -1.164062 2.28125 -1.09375 L 3.03125 0 L 2.234375 0 L 1.578125 -0.984375 L 1.046875 -0.984375 L 1.046875 0 L 0.375 0 Z M 1.734375 -1.578125 C 1.898438 -1.578125 2.023438 -1.613281 2.109375 -1.6875 C 2.203125 -1.769531 2.25 -1.878906 2.25 -2.015625 L 2.25 -2.03125 C 2.25 -2.175781 2.203125 -2.285156 2.109375 -2.359375 C 2.015625 -2.429688 1.882812 -2.46875 1.71875 -2.46875 L 1.046875 -2.46875 L 1.046875 -1.578125 Z M 1.734375 -1.578125 "/></g></g></g><g fill="#000000" fill-opacity="1"><g transform="translate(137.999169, 91.100244)"><g><path d="M 0.40625 -3.078125 L 1.078125 -3.078125 L 1.078125 0 L 0.40625 0 Z M 0.40625 -3.078125 "/></g></g></g><g fill="#000000" fill-opacity="1"><g transform="translate(139.832976, 91.100244)"><g><path d="M 1.078125 -2.453125 L 0.15625 -2.453125 L 0.15625 -3.078125 L 2.703125 -3.078125 L 2.703125 -2.453125 L 1.765625 -2.453125 L 1.765625 0 L 1.078125 0 Z M 1.078125 -2.453125 "/></g></g></g><g fill="#000000" fill-opacity="1"><g transform="translate(143.03884, 91.100244)"><g><path d="M 1.234375 -1.21875 L 0.046875 -3.078125 L 0.84375 -3.078125 L 1.578125 -1.84375 L 2.328125 -3.078125 L 3.09375 -3.078125 L 1.90625 -1.21875 L 1.90625 0 L 1.234375 0 Z M 1.234375 -1.21875 "/></g></g></g><g fill="#000000" fill-opacity="1"><g transform="translate(146.543745, 91.100244)"><g/></g></g><g fill="#000000" fill-opacity="1"><g transform="translate(148.219238, 91.100244)"><g><path d="M 0.375 -3.078125 L 2.703125 -3.078125 L 2.703125 -2.453125 L 1.046875 -2.453125 L 1.046875 -1.796875 L 2.515625 -1.796875 L 2.515625 -1.1875 L 1.046875 -1.1875 L 1.046875 0 L 0.375 0 Z M 0.375 -3.078125 "/></g></g></g><g fill="#000000" fill-opacity="1"><g transform="translate(151.460283, 91.100244)"><g><path d="M 1.859375 0.046875 C 1.617188 0.046875 1.398438 0.00390625 1.203125 -0.078125 C 1.003906 -0.160156 0.832031 -0.269531 0.6875 -0.40625 C 0.539062 -0.550781 0.425781 -0.71875 0.34375 -0.90625 C 0.269531 -1.101562 0.234375 -1.3125 0.234375 -1.53125 C 0.234375 -1.75 0.273438 -1.953125 0.359375 -2.140625 C 0.441406 -2.335938 0.550781 -2.507812 0.6875 -2.65625 C 0.832031 -2.800781 1.003906 -2.914062 1.203125 -3 C 1.410156 -3.082031 1.632812 -3.125 1.875 -3.125 C 2.101562 -3.125 2.316406 -3.082031 2.515625 -3 C 2.722656 -2.914062 2.898438 -2.800781 3.046875 -2.65625 C 3.191406 -2.519531 3.300781 -2.351562 3.375 -2.15625 C 3.457031 -1.96875 3.5 -1.765625 3.5 -1.546875 L 3.5 -1.53125 C 3.5 -1.3125 3.457031 -1.101562 3.375 -0.90625 C 3.289062 -0.71875 3.175781 -0.550781 3.03125 -0.40625 C 2.882812 -0.269531 2.710938 -0.160156 2.515625 -0.078125 C 2.316406 0.00390625 2.097656 0.046875 1.859375 0.046875 Z M 1.875 -0.578125 C 2.007812 -0.578125 2.132812 -0.597656 2.25 -0.640625 C 2.363281 -0.691406 2.457031 -0.757812 2.53125 -0.84375 C 2.613281 -0.9375 2.675781 -1.039062 2.71875 -1.15625 C 2.769531 -1.269531 2.796875 -1.394531 2.796875 -1.53125 C 2.796875 -1.664062 2.769531 -1.789062 2.71875 -1.90625 C 2.675781 -2.019531 2.613281 -2.117188 2.53125 -2.203125 C 2.445312 -2.296875 2.347656 -2.367188 2.234375 -2.421875 C 2.117188 -2.472656 1.992188 -2.5 1.859375 -2.5 C 1.722656 -2.5 1.597656 -2.472656 1.484375 -2.421875 C 1.367188 -2.378906 1.269531 -2.3125 1.1875 -2.21875 C 1.113281 -2.132812 1.050781 -2.035156 1 -1.921875 C 0.957031 -1.804688 0.9375 -1.679688 0.9375 -1.546875 L 0.9375 -1.53125 C 0.9375 -1.40625 0.957031 -1.28125 1 -1.15625 C 1.050781 -1.039062 1.117188 -0.9375 1.203125 -0.84375 C 1.285156 -0.757812 1.382812 -0.691406 1.5 -0.640625 C 1.613281 -0.597656 1.738281 -0.578125 1.875 -0.578125 Z M 1.875 -0.578125 "/></g></g></g><g fill="#000000" fill-opacity="1"><g transform="translate(155.554468, 91.100244)"><g><path d="M 0.375 -3.078125 L 1.78125 -3.078125 C 2.164062 -3.078125 2.460938 -2.972656 2.671875 -2.765625 C 2.847656 -2.585938 2.9375 -2.351562 2.9375 -2.0625 L 2.9375 -2.046875 C 2.9375 -1.796875 2.875 -1.59375 2.75 -1.4375 C 2.625 -1.28125 2.46875 -1.164062 2.28125 -1.09375 L 3.03125 0 L 2.234375 0 L 1.578125 -0.984375 L 1.046875 -0.984375 L 1.046875 0 L 0.375 0 Z M 1.734375 -1.578125 C 1.898438 -1.578125 2.023438 -1.613281 2.109375 -1.6875 C 2.203125 -1.769531 2.25 -1.878906 2.25 -2.015625 L 2.25 -2.03125 C 2.25 -2.175781 2.203125 -2.285156 2.109375 -2.359375 C 2.015625 -2.429688 1.882812 -2.46875 1.71875 -2.46875 L 1.046875 -2.46875 L 1.046875 -1.578125 Z M 1.734375 -1.578125 "/></g></g></g><g fill="#000000" fill-opacity="1"><g transform="translate(159.090153, 91.100244)"><g><path d="M 1.84375 0.046875 C 1.601562 0.046875 1.382812 0.0078125 1.1875 -0.0625 C 0.988281 -0.144531 0.816406 -0.253906 0.671875 -0.390625 C 0.535156 -0.535156 0.425781 -0.703125 0.34375 -0.890625 C 0.269531 -1.085938 0.234375 -1.300781 0.234375 -1.53125 C 0.234375 -1.75 0.269531 -1.953125 0.34375 -2.140625 C 0.425781 -2.335938 0.539062 -2.507812 0.6875 -2.65625 C 0.832031 -2.800781 1.003906 -2.914062 1.203125 -3 C 1.398438 -3.082031 1.613281 -3.125 1.84375 -3.125 C 1.976562 -3.125 2.101562 -3.113281 2.21875 -3.09375 C 2.332031 -3.070312 2.4375 -3.046875 2.53125 -3.015625 C 2.625 -2.984375 2.710938 -2.941406 2.796875 -2.890625 C 2.890625 -2.835938 2.972656 -2.773438 3.046875 -2.703125 L 2.625 -2.1875 C 2.5625 -2.238281 2.5 -2.28125 2.4375 -2.3125 C 2.382812 -2.351562 2.328125 -2.382812 2.265625 -2.40625 C 2.203125 -2.4375 2.132812 -2.457031 2.0625 -2.46875 C 1.988281 -2.488281 1.910156 -2.5 1.828125 -2.5 C 1.703125 -2.5 1.582031 -2.472656 1.46875 -2.421875 C 1.363281 -2.367188 1.269531 -2.300781 1.1875 -2.21875 C 1.113281 -2.132812 1.050781 -2.035156 1 -1.921875 C 0.957031 -1.804688 0.9375 -1.679688 0.9375 -1.546875 L 0.9375 -1.53125 C 0.9375 -1.394531 0.957031 -1.265625 1 -1.140625 C 1.050781 -1.023438 1.117188 -0.921875 1.203125 -0.828125 C 1.285156 -0.742188 1.382812 -0.675781 1.5 -0.625 C 1.613281 -0.582031 1.738281 -0.5625 1.875 -0.5625 C 2.125 -0.5625 2.332031 -0.625 2.5 -0.75 L 2.5 -1.1875 L 1.828125 -1.1875 L 1.828125 -1.765625 L 3.15625 -1.765625 L 3.15625 -0.4375 C 3 -0.300781 2.8125 -0.1875 2.59375 -0.09375 C 2.375 0 2.125 0.046875 1.84375 0.046875 Z M 1.84375 0.046875 "/></g></g></g><g fill="#000000" fill-opacity="1"><g transform="translate(162.894093, 91.100244)"><g><path d="M 0.375 -3.078125 L 2.6875 -3.078125 L 2.6875 -2.46875 L 1.046875 -2.46875 L 1.046875 -1.84375 L 2.484375 -1.84375 L 2.484375 -1.25 L 1.046875 -1.25 L 1.046875 -0.59375 L 2.703125 -0.59375 L 2.703125 0 L 0.375 0 Z M 0.375 -3.078125 "/></g></g></g><g fill="#000000" fill-opacity="1"><g transform="translate(74.405563, 80.975941)"><g><path d="M 7.359375 -11.375 L 0.46875 -11.375 L 0.46875 -12.859375 L 9.328125 -12.859375 L 9.328125 -11.375 L 2.28125 -1.484375 L 9.765625 -1.484375 L 9.765625 0 L 0.234375 0 L 0.234375 -1.4375 Z M 7.359375 -11.375 "/></g></g></g><g fill="#000000" fill-opacity="1"><g transform="translate(83.929896, 80.975941)"><g><path d="M 7.578125 -1.171875 C 8.585938 -1.171875 9.519531 -1.445312 10.375 -2 C 11.226562 -2.550781 11.832031 -3.285156 12.1875 -4.203125 L 13.921875 -4.203125 C 13.429688 -2.835938 12.601562 -1.742188 11.4375 -0.921875 C 10.269531 -0.0976562 8.988281 0.3125 7.59375 0.3125 C 6.382812 0.3125 5.265625 0.015625 4.234375 -0.578125 C 3.210938 -1.179688 2.398438 -2 1.796875 -3.03125 C 1.191406 -4.0625 0.890625 -5.191406 0.890625 -6.421875 C 0.890625 -7.640625 1.195312 -8.765625 1.8125 -9.796875 C 2.425781 -10.835938 3.242188 -11.660156 4.265625 -12.265625 C 5.296875 -12.878906 6.398438 -13.1875 7.578125 -13.1875 C 8.828125 -13.1875 9.960938 -12.863281 10.984375 -12.21875 C 12.015625 -11.582031 12.828125 -10.734375 13.421875 -9.671875 C 14.023438 -8.617188 14.328125 -7.503906 14.328125 -6.328125 L 14.296875 -5.828125 L 2.59375 -5.828125 C 2.632812 -4.992188 2.894531 -4.222656 3.375 -3.515625 C 3.851562 -2.804688 4.46875 -2.238281 5.21875 -1.8125 C 5.96875 -1.382812 6.753906 -1.171875 7.578125 -1.171875 Z M 7.578125 -11.703125 C 6.773438 -11.703125 6.019531 -11.519531 5.3125 -11.15625 C 4.601562 -10.789062 4.003906 -10.273438 3.515625 -9.609375 C 3.035156 -8.941406 2.726562 -8.175781 2.59375 -7.3125 L 12.625 -7.3125 C 12.394531 -8.613281 11.8125 -9.671875 10.875 -10.484375 C 9.945312 -11.296875 8.847656 -11.703125 7.578125 -11.703125 Z M 7.578125 -11.703125 "/></g></g></g><g fill="#000000" fill-opacity="1"><g transform="translate(98.745547, 80.975941)"><g><path d="M 7.203125 -11.703125 C 5.972656 -11.703125 4.992188 -11.285156 4.265625 -10.453125 C 3.535156 -9.628906 3.171875 -8.578125 3.171875 -7.296875 L 3.171875 0 L 1.53125 0 L 1.53125 -12.859375 L 3.171875 -12.859375 L 3.171875 -11.21875 L 3.21875 -11.21875 C 3.625 -11.84375 4.175781 -12.328125 4.875 -12.671875 C 5.570312 -13.015625 6.335938 -13.1875 7.171875 -13.1875 C 8.328125 -13.1875 9.332031 -12.9375 10.1875 -12.4375 C 11.039062 -11.9375 11.695312 -11.226562 12.15625 -10.3125 C 12.613281 -9.40625 12.84375 -8.359375 12.84375 -7.171875 L 12.84375 0 L 11.1875 0 L 11.1875 -7.171875 C 11.1875 -8.109375 11.015625 -8.914062 10.671875 -9.59375 C 10.328125 -10.28125 9.847656 -10.800781 9.234375 -11.15625 C 8.628906 -11.519531 7.953125 -11.703125 7.203125 -11.703125 Z M 7.203125 -11.703125 "/></g></g></g><g fill="#000000" fill-opacity="1"><g transform="translate(112.03698, 81.006747)"><g><path d="M 7.453125 -17.40625 C 9.222656 -17.40625 10.609375 -17.1875 11.609375 -16.75 C 12.554688 -16.300781 13.300781 -15.609375 13.84375 -14.671875 C 14.394531 -13.742188 14.671875 -12.691406 14.671875 -11.515625 C 14.671875 -9.648438 14.101562 -8.171875 12.96875 -7.078125 C 11.832031 -5.992188 10.144531 -5.453125 7.90625 -5.453125 L 5.828125 -5.453125 L 5.828125 0 L 1.578125 0 L 1.578125 -17.40625 Z M 10.421875 -11.453125 C 10.421875 -12.160156 10.191406 -12.675781 9.734375 -13 C 9.273438 -13.332031 8.554688 -13.5 7.578125 -13.5 L 5.828125 -13.5 L 5.828125 -9.359375 L 7.734375 -9.359375 C 8.640625 -9.359375 9.3125 -9.519531 9.75 -9.84375 C 10.195312 -10.175781 10.421875 -10.710938 10.421875 -11.453125 Z M 10.421875 -11.453125 "/></g></g></g><g fill="#000000" fill-opacity="1"><g transform="translate(126.524294, 81.006747)"><g><path d="M 11.171875 -1.40625 C 10.890625 -0.84375 10.394531 -0.390625 9.6875 -0.046875 C 8.976562 0.285156 8.195312 0.453125 7.34375 0.453125 C 6.082031 0.453125 4.953125 0.144531 3.953125 -0.46875 C 2.960938 -1.082031 2.1875 -1.921875 1.625 -2.984375 C 1.070312 -4.046875 0.796875 -5.226562 0.796875 -6.53125 C 0.796875 -7.800781 1.082031 -8.96875 1.65625 -10.03125 C 2.226562 -11.101562 3.007812 -11.945312 4 -12.5625 C 5 -13.1875 6.113281 -13.5 7.34375 -13.5 C 8.15625 -13.5 8.90625 -13.335938 9.59375 -13.015625 C 10.28125 -12.691406 10.804688 -12.238281 11.171875 -11.65625 L 11.21875 -11.65625 L 11.21875 -13.046875 L 15.125 -13.046875 L 15.125 0 L 11.21875 0 L 11.21875 -1.40625 Z M 11.21875 -6.53125 C 11.21875 -7.132812 11.066406 -7.6875 10.765625 -8.1875 C 10.472656 -8.695312 10.070312 -9.101562 9.5625 -9.40625 C 9.050781 -9.707031 8.5 -9.859375 7.90625 -9.859375 C 7.320312 -9.859375 6.78125 -9.707031 6.28125 -9.40625 C 5.789062 -9.101562 5.40625 -8.691406 5.125 -8.171875 C 4.84375 -7.660156 4.703125 -7.097656 4.703125 -6.484375 C 4.703125 -5.890625 4.847656 -5.34375 5.140625 -4.84375 C 5.429688 -4.34375 5.820312 -3.941406 6.3125 -3.640625 C 6.8125 -3.347656 7.359375 -3.203125 7.953125 -3.203125 C 8.546875 -3.203125 9.09375 -3.347656 9.59375 -3.640625 C 10.09375 -3.941406 10.488281 -4.347656 10.78125 -4.859375 C 11.070312 -5.367188 11.21875 -5.925781 11.21875 -6.53125 Z M 11.21875 -6.53125 "/></g></g></g><g fill="#000000" fill-opacity="1"><g transform="translate(142.610858, 81.006747)"><g><path d="M 5.765625 -10.375 C 5.429688 -10.375 5.15625 -10.289062 4.9375 -10.125 C 4.726562 -9.957031 4.625 -9.75 4.625 -9.5 C 4.625 -9.15625 4.800781 -8.875 5.15625 -8.65625 C 5.507812 -8.4375 6.148438 -8.207031 7.078125 -7.96875 C 8.578125 -7.582031 9.632812 -7.070312 10.25 -6.4375 C 10.875 -5.800781 11.1875 -4.988281 11.1875 -4 C 11.1875 -3.101562 10.953125 -2.320312 10.484375 -1.65625 C 10.015625 -0.988281 9.375 -0.46875 8.5625 -0.09375 C 7.757812 0.269531 6.863281 0.453125 5.875 0.453125 C 4.40625 0.453125 3.1875 0.0625 2.21875 -0.71875 C 1.257812 -1.507812 0.707031 -2.5625 0.5625 -3.875 L 4.4375 -3.875 C 4.5 -3.488281 4.660156 -3.191406 4.921875 -2.984375 C 5.179688 -2.785156 5.515625 -2.6875 5.921875 -2.6875 C 6.285156 -2.6875 6.601562 -2.78125 6.875 -2.96875 C 7.15625 -3.15625 7.296875 -3.394531 7.296875 -3.6875 C 7.296875 -4.0625 7.132812 -4.367188 6.8125 -4.609375 C 6.488281 -4.847656 5.847656 -5.113281 4.890625 -5.40625 C 3.335938 -5.875 2.253906 -6.421875 1.640625 -7.046875 C 1.035156 -7.679688 0.734375 -8.410156 0.734375 -9.234375 C 0.734375 -10.066406 0.96875 -10.804688 1.4375 -11.453125 C 1.90625 -12.109375 2.523438 -12.613281 3.296875 -12.96875 C 4.078125 -13.320312 4.90625 -13.5 5.78125 -13.5 C 7.207031 -13.5 8.375 -13.128906 9.28125 -12.390625 C 10.195312 -11.648438 10.703125 -10.644531 10.796875 -9.375 L 6.953125 -9.375 C 6.941406 -10.039062 6.546875 -10.375 5.765625 -10.375 Z M 5.765625 -10.375 "/></g></g></g><g fill="#000000" fill-opacity="1"><g transform="translate(153.876154, 81.006747)"><g><path d="M 5.765625 -10.375 C 5.429688 -10.375 5.15625 -10.289062 4.9375 -10.125 C 4.726562 -9.957031 4.625 -9.75 4.625 -9.5 C 4.625 -9.15625 4.800781 -8.875 5.15625 -8.65625 C 5.507812 -8.4375 6.148438 -8.207031 7.078125 -7.96875 C 8.578125 -7.582031 9.632812 -7.070312 10.25 -6.4375 C 10.875 -5.800781 11.1875 -4.988281 11.1875 -4 C 11.1875 -3.101562 10.953125 -2.320312 10.484375 -1.65625 C 10.015625 -0.988281 9.375 -0.46875 8.5625 -0.09375 C 7.757812 0.269531 6.863281 0.453125 5.875 0.453125 C 4.40625 0.453125 3.1875 0.0625 2.21875 -0.71875 C 1.257812 -1.507812 0.707031 -2.5625 0.5625 -3.875 L 4.4375 -3.875 C 4.5 -3.488281 4.660156 -3.191406 4.921875 -2.984375 C 5.179688 -2.785156 5.515625 -2.6875 5.921875 -2.6875 C 6.285156 -2.6875 6.601562 -2.78125 6.875 -2.96875 C 7.15625 -3.15625 7.296875 -3.394531 7.296875 -3.6875 C 7.296875 -4.0625 7.132812 -4.367188 6.8125 -4.609375 C 6.488281 -4.847656 5.847656 -5.113281 4.890625 -5.40625 C 3.335938 -5.875 2.253906 -6.421875 1.640625 -7.046875 C 1.035156 -7.679688 0.734375 -8.410156 0.734375 -9.234375 C 0.734375 -10.066406 0.96875 -10.804688 1.4375 -11.453125 C 1.90625 -12.109375 2.523438 -12.613281 3.296875 -12.96875 C 4.078125 -13.320312 4.90625 -13.5 5.78125 -13.5 C 7.207031 -13.5 8.375 -13.128906 9.28125 -12.390625 C 10.195312 -11.648438 10.703125 -10.644531 10.796875 -9.375 L 6.953125 -9.375 C 6.941406 -10.039062 6.546875 -10.375 5.765625 -10.375 Z M 5.765625 -10.375 "/></g></g></g><g fill="#000000" fill-opacity="1"><g transform="translate(131.437722, 97.60516)"><g><path d="M 0.109375 -2.796875 L 0.546875 -2.796875 L 0.546875 -1.8125 C 0.628906 -1.894531 0.710938 -1.953125 0.796875 -1.984375 C 0.890625 -2.023438 0.992188 -2.046875 1.109375 -2.046875 C 1.234375 -2.046875 1.347656 -2.019531 1.453125 -1.96875 C 1.566406 -1.914062 1.660156 -1.84375 1.734375 -1.75 C 1.816406 -1.65625 1.878906 -1.539062 1.921875 -1.40625 C 1.972656 -1.28125 2 -1.144531 2 -1 C 2 -0.84375 1.972656 -0.695312 1.921875 -0.5625 C 1.878906 -0.4375 1.816406 -0.328125 1.734375 -0.234375 C 1.660156 -0.148438 1.566406 -0.0820312 1.453125 -0.03125 C 1.347656 0.0195312 1.234375 0.046875 1.109375 0.046875 C 0.992188 0.046875 0.890625 0.0234375 0.796875 -0.015625 C 0.710938 -0.0546875 0.628906 -0.113281 0.546875 -0.1875 L 0.546875 0 L 0.109375 0 Z M 0.546875 -0.53125 C 0.597656 -0.46875 0.664062 -0.421875 0.75 -0.390625 C 0.832031 -0.367188 0.910156 -0.359375 0.984375 -0.359375 C 1.148438 -0.359375 1.285156 -0.414062 1.390625 -0.53125 C 1.492188 -0.644531 1.546875 -0.800781 1.546875 -1 C 1.546875 -1.1875 1.492188 -1.335938 1.390625 -1.453125 C 1.285156 -1.578125 1.148438 -1.640625 0.984375 -1.640625 C 0.910156 -1.640625 0.832031 -1.625 0.75 -1.59375 C 0.664062 -1.5625 0.597656 -1.519531 0.546875 -1.46875 Z M 0.546875 -0.53125 "/></g></g></g><g fill="#000000" fill-opacity="1"><g transform="translate(134.194584, 97.60516)"><g><path d="M 1.984375 -2 L 1.125 0.390625 C 1.050781 0.566406 0.953125 0.6875 0.828125 0.75 C 0.710938 0.8125 0.570312 0.84375 0.40625 0.84375 C 0.34375 0.84375 0.273438 0.835938 0.203125 0.828125 C 0.140625 0.816406 0.0703125 0.796875 0 0.765625 L 0.09375 0.359375 C 0.15625 0.378906 0.210938 0.394531 0.265625 0.40625 C 0.316406 0.414062 0.363281 0.421875 0.40625 0.421875 C 0.53125 0.421875 0.617188 0.363281 0.671875 0.25 L 0.75 0.046875 L -0.015625 -2 L 0.453125 -2 L 1 -0.484375 L 1.5 -2 Z M 1.984375 -2 "/></g></g></g><g fill="#000000" fill-opacity="1"><g transform="translate(136.951446, 97.60516)"><g/></g></g><g fill="#000000" fill-opacity="1"><g transform="translate(139.708308, 97.60516)"><g><path d="M 2 -1.59375 L 1.21875 -1.59375 L 1.21875 -0.40625 L 1.671875 -0.40625 L 1.671875 0 L 0.328125 0 L 0.328125 -0.40625 L 0.78125 -0.40625 L 0.78125 -1.59375 L 0.328125 -1.59375 L 0.328125 -2 L 0.78125 -2 C 0.78125 -2.269531 0.863281 -2.476562 1.03125 -2.625 C 1.195312 -2.769531 1.425781 -2.84375 1.71875 -2.84375 C 1.757812 -2.84375 1.800781 -2.835938 1.84375 -2.828125 C 1.894531 -2.828125 1.945312 -2.828125 2 -2.828125 L 2 -2.4375 C 1.914062 -2.445312 1.835938 -2.453125 1.765625 -2.453125 C 1.648438 -2.453125 1.554688 -2.441406 1.484375 -2.421875 C 1.410156 -2.398438 1.351562 -2.367188 1.3125 -2.328125 C 1.28125 -2.296875 1.253906 -2.25 1.234375 -2.1875 C 1.222656 -2.132812 1.21875 -2.070312 1.21875 -2 L 2 -2 Z M 2 -1.59375 "/></g></g></g><g fill="#000000" fill-opacity="1"><g transform="translate(142.465171, 97.60516)"><g><path d="M -0.015625 -0.578125 C -0.015625 -0.691406 0.015625 -0.789062 0.078125 -0.875 C 0.148438 -0.96875 0.234375 -1.039062 0.328125 -1.09375 C 0.429688 -1.15625 0.550781 -1.203125 0.6875 -1.234375 C 0.820312 -1.265625 0.957031 -1.28125 1.09375 -1.28125 C 1.164062 -1.28125 1.226562 -1.273438 1.28125 -1.265625 C 1.332031 -1.265625 1.390625 -1.265625 1.453125 -1.265625 L 1.453125 -1.34375 C 1.453125 -1.445312 1.410156 -1.523438 1.328125 -1.578125 C 1.242188 -1.628906 1.140625 -1.65625 1.015625 -1.65625 C 0.890625 -1.65625 0.765625 -1.632812 0.640625 -1.59375 C 0.515625 -1.5625 0.398438 -1.515625 0.296875 -1.453125 L 0.109375 -1.796875 C 0.242188 -1.878906 0.382812 -1.941406 0.53125 -1.984375 C 0.6875 -2.023438 0.847656 -2.046875 1.015625 -2.046875 C 1.117188 -2.046875 1.222656 -2.03125 1.328125 -2 C 1.429688 -1.976562 1.523438 -1.941406 1.609375 -1.890625 C 1.691406 -1.835938 1.757812 -1.765625 1.8125 -1.671875 C 1.863281 -1.578125 1.890625 -1.46875 1.890625 -1.34375 L 1.890625 0 L 1.453125 0 L 1.453125 -0.296875 C 1.378906 -0.179688 1.273438 -0.09375 1.140625 -0.03125 C 1.003906 0.0195312 0.859375 0.046875 0.703125 0.046875 C 0.597656 0.046875 0.503906 0.03125 0.421875 0 C 0.335938 -0.0195312 0.265625 -0.0546875 0.203125 -0.109375 C 0.140625 -0.160156 0.0859375 -0.222656 0.046875 -0.296875 C 0.00390625 -0.378906 -0.015625 -0.472656 -0.015625 -0.578125 Z M 0.8125 -0.34375 C 0.894531 -0.34375 0.972656 -0.351562 1.046875 -0.375 C 1.128906 -0.394531 1.195312 -0.425781 1.25 -0.46875 C 1.3125 -0.507812 1.359375 -0.554688 1.390625 -0.609375 C 1.429688 -0.671875 1.453125 -0.734375 1.453125 -0.796875 L 1.453125 -0.875 C 1.378906 -0.882812 1.3125 -0.890625 1.25 -0.890625 C 1.1875 -0.890625 1.132812 -0.890625 1.09375 -0.890625 C 0.875 -0.890625 0.707031 -0.859375 0.59375 -0.796875 C 0.488281 -0.742188 0.4375 -0.675781 0.4375 -0.59375 C 0.4375 -0.425781 0.5625 -0.34375 0.8125 -0.34375 Z M 0.8125 -0.34375 "/></g></g></g><g fill="#000000" fill-opacity="1"><g transform="translate(145.222033, 97.60516)"><g><path d="M 2.015625 -0.640625 C 1.992188 -0.429688 1.910156 -0.265625 1.765625 -0.140625 C 1.628906 -0.015625 1.453125 0.046875 1.234375 0.046875 C 1.117188 0.046875 1.007812 0.03125 0.90625 0 C 0.8125 -0.0390625 0.726562 -0.09375 0.65625 -0.15625 C 0.59375 -0.226562 0.539062 -0.3125 0.5 -0.40625 C 0.46875 -0.507812 0.453125 -0.617188 0.453125 -0.734375 L 0.453125 -1.59375 L 0 -1.59375 L 0 -2 L 0.453125 -2 L 0.453125 -2.796875 L 0.890625 -2.796875 L 0.890625 -2 L 1.734375 -2 L 1.734375 -1.59375 L 0.890625 -1.59375 L 0.890625 -0.734375 C 0.890625 -0.609375 0.921875 -0.515625 0.984375 -0.453125 C 1.046875 -0.390625 1.128906 -0.359375 1.234375 -0.359375 C 1.359375 -0.359375 1.453125 -0.390625 1.515625 -0.453125 C 1.578125 -0.523438 1.613281 -0.613281 1.625 -0.71875 Z M 2.015625 -0.640625 "/></g></g></g><g fill="#000000" fill-opacity="1"><g transform="translate(147.978895, 97.60516)"><g><path d="M 1.921875 -0.765625 C 1.921875 -0.640625 1.898438 -0.523438 1.859375 -0.421875 C 1.816406 -0.316406 1.757812 -0.226562 1.6875 -0.15625 C 1.613281 -0.09375 1.523438 -0.0390625 1.421875 0 C 1.316406 0.03125 1.203125 0.046875 1.078125 0.046875 C 0.953125 0.046875 0.832031 0.0234375 0.71875 -0.015625 C 0.613281 -0.0664062 0.523438 -0.144531 0.453125 -0.25 L 0.453125 0 L 0.0625 0 L 0.0625 -0.90625 L 0.453125 -0.90625 C 0.453125 -0.820312 0.46875 -0.742188 0.5 -0.671875 C 0.53125 -0.597656 0.570312 -0.535156 0.625 -0.484375 C 0.6875 -0.441406 0.75 -0.40625 0.8125 -0.375 C 0.882812 -0.351562 0.960938 -0.34375 1.046875 -0.34375 C 1.171875 -0.34375 1.273438 -0.375 1.359375 -0.4375 C 1.441406 -0.5 1.484375 -0.597656 1.484375 -0.734375 C 1.484375 -0.804688 1.46875 -0.863281 1.4375 -0.90625 C 1.414062 -0.957031 1.378906 -1.003906 1.328125 -1.046875 C 1.285156 -1.085938 1.226562 -1.117188 1.15625 -1.140625 C 1.09375 -1.171875 1.019531 -1.207031 0.9375 -1.25 C 0.832031 -1.28125 0.726562 -1.316406 0.625 -1.359375 C 0.53125 -1.398438 0.441406 -1.453125 0.359375 -1.515625 C 0.285156 -1.578125 0.222656 -1.65625 0.171875 -1.75 C 0.117188 -1.84375 0.09375 -1.957031 0.09375 -2.09375 C 0.09375 -2.21875 0.113281 -2.328125 0.15625 -2.421875 C 0.207031 -2.515625 0.269531 -2.59375 0.34375 -2.65625 C 0.414062 -2.71875 0.5 -2.765625 0.59375 -2.796875 C 0.695312 -2.828125 0.804688 -2.84375 0.921875 -2.84375 C 1.046875 -2.84375 1.15625 -2.816406 1.25 -2.765625 C 1.34375 -2.710938 1.414062 -2.640625 1.46875 -2.546875 L 1.46875 -2.796875 L 1.859375 -2.796875 L 1.859375 -1.921875 L 1.46875 -1.921875 C 1.46875 -2.085938 1.421875 -2.21875 1.328125 -2.3125 C 1.242188 -2.40625 1.128906 -2.453125 0.984375 -2.453125 C 0.859375 -2.453125 0.75 -2.421875 0.65625 -2.359375 C 0.570312 -2.296875 0.53125 -2.210938 0.53125 -2.109375 C 0.53125 -2.054688 0.539062 -2.007812 0.5625 -1.96875 C 0.59375 -1.925781 0.628906 -1.890625 0.671875 -1.859375 C 0.710938 -1.828125 0.765625 -1.796875 0.828125 -1.765625 C 0.890625 -1.734375 0.960938 -1.703125 1.046875 -1.671875 C 1.148438 -1.640625 1.253906 -1.597656 1.359375 -1.546875 C 1.460938 -1.503906 1.554688 -1.445312 1.640625 -1.375 C 1.722656 -1.3125 1.789062 -1.226562 1.84375 -1.125 C 1.894531 -1.03125 1.921875 -0.910156 1.921875 -0.765625 Z M 1.921875 -0.765625 "/></g></g></g><g fill="#000000" fill-opacity="1"><g transform="translate(150.735757, 97.60516)"><g><path d="M 1.921875 -0.28125 C 1.796875 -0.15625 1.660156 -0.0664062 1.515625 -0.015625 C 1.367188 0.0234375 1.21875 0.046875 1.0625 0.046875 C 0.882812 0.046875 0.726562 0.0234375 0.59375 -0.015625 C 0.457031 -0.0664062 0.34375 -0.140625 0.25 -0.234375 C 0.15625 -0.328125 0.0820312 -0.4375 0.03125 -0.5625 C -0.0195312 -0.695312 -0.046875 -0.84375 -0.046875 -1 C -0.046875 -1.144531 -0.0195312 -1.28125 0.03125 -1.40625 C 0.0820312 -1.539062 0.148438 -1.65625 0.234375 -1.75 C 0.328125 -1.84375 0.429688 -1.914062 0.546875 -1.96875 C 0.660156 -2.019531 0.785156 -2.046875 0.921875 -2.046875 C 1.054688 -2.046875 1.171875 -2.015625 1.265625 -1.953125 C 1.367188 -1.898438 1.445312 -1.816406 1.5 -1.703125 L 1.5 -2 L 1.890625 -2 L 1.890625 -1.0625 L 1.5 -1.0625 C 1.5 -1.238281 1.445312 -1.378906 1.34375 -1.484375 C 1.25 -1.585938 1.125 -1.640625 0.96875 -1.640625 C 0.914062 -1.640625 0.851562 -1.628906 0.78125 -1.609375 C 0.707031 -1.585938 0.644531 -1.546875 0.59375 -1.484375 C 0.539062 -1.429688 0.492188 -1.363281 0.453125 -1.28125 C 0.421875 -1.207031 0.40625 -1.113281 0.40625 -1 C 0.40625 -0.882812 0.421875 -0.785156 0.453125 -0.703125 C 0.484375 -0.628906 0.523438 -0.566406 0.578125 -0.515625 C 0.640625 -0.460938 0.710938 -0.421875 0.796875 -0.390625 C 0.878906 -0.367188 0.960938 -0.359375 1.046875 -0.359375 C 1.191406 -0.359375 1.316406 -0.378906 1.421875 -0.421875 C 1.523438 -0.460938 1.617188 -0.519531 1.703125 -0.59375 Z M 1.921875 -0.28125 "/></g></g></g><g fill="#000000" fill-opacity="1"><g transform="translate(153.49262, 97.60516)"><g><path d="M 2.046875 -1 C 2.046875 -0.84375 2.019531 -0.695312 1.96875 -0.5625 C 1.925781 -0.4375 1.859375 -0.328125 1.765625 -0.234375 C 1.671875 -0.148438 1.554688 -0.0820312 1.421875 -0.03125 C 1.296875 0.0195312 1.15625 0.046875 1 0.046875 C 0.84375 0.046875 0.695312 0.0195312 0.5625 -0.03125 C 0.4375 -0.0820312 0.328125 -0.148438 0.234375 -0.234375 C 0.148438 -0.328125 0.0820312 -0.4375 0.03125 -0.5625 C -0.0195312 -0.695312 -0.046875 -0.84375 -0.046875 -1 C -0.046875 -1.144531 -0.0195312 -1.28125 0.03125 -1.40625 C 0.0820312 -1.539062 0.148438 -1.65625 0.234375 -1.75 C 0.328125 -1.84375 0.4375 -1.914062 0.5625 -1.96875 C 0.695312 -2.019531 0.84375 -2.046875 1 -2.046875 C 1.15625 -2.046875 1.296875 -2.019531 1.421875 -1.96875 C 1.554688 -1.914062 1.671875 -1.84375 1.765625 -1.75 C 1.859375 -1.65625 1.925781 -1.539062 1.96875 -1.40625 C 2.019531 -1.28125 2.046875 -1.144531 2.046875 -1 Z M 1.609375 -1 C 1.609375 -1.082031 1.59375 -1.164062 1.5625 -1.25 C 1.539062 -1.332031 1.5 -1.398438 1.4375 -1.453125 C 1.382812 -1.515625 1.320312 -1.5625 1.25 -1.59375 C 1.175781 -1.625 1.09375 -1.640625 1 -1.640625 C 0.90625 -1.640625 0.820312 -1.625 0.75 -1.59375 C 0.675781 -1.5625 0.613281 -1.515625 0.5625 -1.453125 C 0.507812 -1.398438 0.46875 -1.332031 0.4375 -1.25 C 0.414062 -1.164062 0.40625 -1.082031 0.40625 -1 C 0.40625 -0.90625 0.414062 -0.816406 0.4375 -0.734375 C 0.46875 -0.660156 0.507812 -0.59375 0.5625 -0.53125 C 0.613281 -0.476562 0.675781 -0.4375 0.75 -0.40625 C 0.820312 -0.375 0.90625 -0.359375 1 -0.359375 C 1.09375 -0.359375 1.175781 -0.375 1.25 -0.40625 C 1.320312 -0.4375 1.382812 -0.476562 1.4375 -0.53125 C 1.5 -0.59375 1.539062 -0.660156 1.5625 -0.734375 C 1.59375 -0.816406 1.609375 -0.90625 1.609375 -1 Z M 1.609375 -1 "/></g></g></g><g fill="#000000" fill-opacity="1"><g transform="translate(156.249482, 97.60516)"><g><path d="M 1.953125 -1.53125 C 1.898438 -1.550781 1.84375 -1.566406 1.78125 -1.578125 C 1.726562 -1.597656 1.664062 -1.609375 1.59375 -1.609375 C 1.5 -1.609375 1.40625 -1.59375 1.3125 -1.5625 C 1.226562 -1.53125 1.15625 -1.484375 1.09375 -1.421875 C 1.03125 -1.367188 0.976562 -1.296875 0.9375 -1.203125 C 0.90625 -1.117188 0.890625 -1.015625 0.890625 -0.890625 L 0.890625 -0.40625 L 1.34375 -0.40625 L 1.34375 0 L 0 0 L 0 -0.40625 L 0.453125 -0.40625 L 0.453125 -1.59375 L 0 -1.59375 L 0 -2 L 0.890625 -2 L 0.890625 -1.5 C 0.960938 -1.695312 1.070312 -1.835938 1.21875 -1.921875 C 1.363281 -2.003906 1.53125 -2.046875 1.71875 -2.046875 C 1.78125 -2.046875 1.84375 -2.035156 1.90625 -2.015625 C 1.976562 -2.003906 2.046875 -1.984375 2.109375 -1.953125 Z M 1.953125 -1.53125 "/></g></g></g><g fill="#000000" fill-opacity="1"><g transform="translate(159.006344, 97.60516)"><g><path d="M 0.109375 -2 L 0.546875 -2 L 0.546875 -1.8125 C 0.628906 -1.894531 0.710938 -1.953125 0.796875 -1.984375 C 0.890625 -2.023438 0.992188 -2.046875 1.109375 -2.046875 C 1.234375 -2.046875 1.347656 -2.019531 1.453125 -1.96875 C 1.566406 -1.914062 1.660156 -1.84375 1.734375 -1.75 C 1.816406 -1.65625 1.878906 -1.539062 1.921875 -1.40625 C 1.972656 -1.28125 2 -1.144531 2 -1 C 2 -0.84375 1.972656 -0.695312 1.921875 -0.5625 C 1.878906 -0.4375 1.816406 -0.328125 1.734375 -0.234375 C 1.660156 -0.148438 1.566406 -0.0820312 1.453125 -0.03125 C 1.347656 0.0195312 1.234375 0.046875 1.109375 0.046875 C 0.992188 0.046875 0.890625 0.0234375 0.796875 -0.015625 C 0.710938 -0.0546875 0.628906 -0.113281 0.546875 -0.1875 L 0.546875 0.796875 L 0.109375 0.796875 Z M 0.546875 -0.53125 C 0.597656 -0.476562 0.664062 -0.4375 0.75 -0.40625 C 0.832031 -0.375 0.910156 -0.359375 0.984375 -0.359375 C 1.148438 -0.359375 1.285156 -0.414062 1.390625 -0.53125 C 1.492188 -0.644531 1.546875 -0.800781 1.546875 -1 C 1.546875 -1.1875 1.492188 -1.335938 1.390625 -1.453125 C 1.285156 -1.578125 1.148438 -1.640625 0.984375 -1.640625 C 0.910156 -1.640625 0.832031 -1.625 0.75 -1.59375 C 0.664062 -1.5625 0.597656 -1.519531 0.546875 -1.46875 Z M 0.546875 -0.53125 "/></g></g></g><g fill="#000000" fill-opacity="1"><g transform="translate(161.763206, 97.60516)"><g><path d="M 1.265625 -2.25 L 0.734375 -2.25 L 0.734375 -2.796875 L 1.265625 -2.796875 Z M 1.671875 0 L 0.328125 0 L 0.328125 -0.40625 L 0.78125 -0.40625 L 0.78125 -1.59375 L 0.328125 -1.59375 L 0.328125 -2 L 1.21875 -2 L 1.21875 -0.40625 L 1.671875 -0.40625 Z M 1.671875 0 "/></g></g></g><g fill="#000000" fill-opacity="1"><g transform="translate(164.520069, 97.60516)"><g><path d="M 0.40625 -0.828125 C 0.425781 -0.691406 0.488281 -0.578125 0.59375 -0.484375 C 0.707031 -0.398438 0.859375 -0.359375 1.046875 -0.359375 C 1.191406 -0.359375 1.316406 -0.378906 1.421875 -0.421875 C 1.523438 -0.460938 1.617188 -0.519531 1.703125 -0.59375 L 1.921875 -0.28125 C 1.796875 -0.15625 1.660156 -0.0664062 1.515625 -0.015625 C 1.367188 0.0234375 1.210938 0.046875 1.046875 0.046875 C 0.890625 0.046875 0.742188 0.0195312 0.609375 -0.03125 C 0.472656 -0.0820312 0.359375 -0.148438 0.265625 -0.234375 C 0.171875 -0.328125 0.09375 -0.4375 0.03125 -0.5625 C -0.0195312 -0.695312 -0.046875 -0.84375 -0.046875 -1 C -0.046875 -1.144531 -0.0195312 -1.28125 0.03125 -1.40625 C 0.0820312 -1.539062 0.15625 -1.65625 0.25 -1.75 C 0.34375 -1.84375 0.453125 -1.914062 0.578125 -1.96875 C 0.703125 -2.019531 0.84375 -2.046875 1 -2.046875 C 1.164062 -2.046875 1.3125 -2.015625 1.4375 -1.953125 C 1.570312 -1.898438 1.6875 -1.820312 1.78125 -1.71875 C 1.875 -1.613281 1.945312 -1.484375 2 -1.328125 C 2.050781 -1.179688 2.078125 -1.015625 2.078125 -0.828125 Z M 1.578125 -1.21875 C 1.554688 -1.34375 1.488281 -1.441406 1.375 -1.515625 C 1.269531 -1.597656 1.144531 -1.640625 1 -1.640625 C 0.863281 -1.640625 0.738281 -1.597656 0.625 -1.515625 C 0.507812 -1.441406 0.441406 -1.34375 0.421875 -1.21875 Z M 1.578125 -1.21875 "/></g></g></g></svg>